<?xml version="1.0" encoding="UTF-8" standalone="no"?>
<!-- Created with Inkscape (http://www.inkscape.org/) -->
<svg xmlns:dc="http://purl.org/dc/elements/1.1/" xmlns:cc="http://creativecommons.org/ns#" xmlns:rdf="http://www.w3.org/1999/02/22-rdf-syntax-ns#" xmlns:svg="http://www.w3.org/2000/svg" xmlns="http://www.w3.org/2000/svg" xmlns:sodipodi="http://sodipodi.sourceforge.net/DTD/sodipodi-0.dtd" xmlns:inkscape="http://www.inkscape.org/namespaces/inkscape" id="svg2" version="1.1" inkscape:version="0.91 r13725" width="111" height="129" viewBox="0 0 111 129" sodipodi:docname="a30-vectInk-simp0.svg">
  <metadata id="metadata8">
    <rdf:RDF>
      <cc:Work rdf:about="">
        <dc:format>image/svg+xml</dc:format>
        <dc:type rdf:resource="http://purl.org/dc/dcmitype/StillImage"/>
        <dc:title/>
      </cc:Work>
    </rdf:RDF>
  </metadata>
  <defs id="defs6"/>
  <sodipodi:namedview pagecolor="#ffffff" bordercolor="#666666" borderopacity="1" objecttolerance="10" gridtolerance="10" guidetolerance="10" inkscape:pageopacity="0" inkscape:pageshadow="2" inkscape:window-width="1366" inkscape:window-height="721" id="namedview4" showgrid="false" inkscape:zoom="1.8294574" inkscape:cx="-9.8199153" inkscape:cy="64.5" inkscape:window-x="0" inkscape:window-y="0" inkscape:window-maximized="1" inkscape:current-layer="svg2"/>
  <path style="fill:#000000" d="M 80.754147,115.95903 C 78.693928,115.4497 74.31926,113.67556 71.032664,112.01649 63.642383,108.28589 59.881676,108.23202 52.370843,111.7492 47.501458,114.02944 45.135347,114.49854 38.5,114.4992 31.753966,114.49988 29.602748,114.0594 24.775753,111.68905 7.3181051,103.1163 3.7891224,81.421812 17.79802,68.793312 24.497729,62.753774 29.19309,60.891449 40.111634,59.943048 56.511312,58.518548 61.004514,54.732253 60.994423,42.345708 60.991356,38.580569 60.494972,33.721116 59.891347,31.546924 58.426968,26.272384 53.109875,21 49.254988,21 44.526643,21 42.694573,23.959787 42.316044,32.210159 41.947743,40.237608 40.532323,43.156245 35.827835,45.58903 27.31357,49.991927 15.94247,42.352061 16.021962,32.282119 16.082305,24.637894 24.824768,14.620112 34.329479,11.303968 41.608199,8.7644602 55.66995,8.9808968 62.719203,11.740939 74.083965,16.190661 81.619045,24.167845 85.633801,36 87.300849,40.913068 87.469652,44.28467 87.215617,67.594467 87.046264,83.134023 87.33158,94.741921 87.920991,96.29219 88.465357,97.723981 90.446122,100.60647 92.322691,102.69772 97.063887,107.98132 97.582081,110.22911 94.786296,113.3842 92.14472,116.36526 86.549942,117.39188 80.754147,115.95903 Z M 52.906821,98.424951 C 56.671776,95.25695 59,88.007841 59,79.453357 59,71.109553 56.693401,68 50.504145,68 42.478249,68 36.066064,76.272995 36.021962,86.6849 35.982089,96.098357 39.372404,101 45.923275,101 48.679637,101 50.756776,100.2341 52.906821,98.424951 Z" id="path4138" inkscape:connector-curvature="0"/>
<circle cx="71.03266143798828" cy="112.01648712158203" r="3" id="path0p1" class="point" style="fill:none;stroke:red;stroke-width:0.5;"/><circle cx="63.64238357543945" cy="108.285888671875" r="1" id="path0h11" class="handlePoint" style="fill:red;stroke:none;stroke-width:0.5;"/><circle cx="74.31925964355469" cy="113.6755599975586" r="1" id="path0h21" class="handlePoint" style="fill:none;stroke:red;stroke-width:0.5;"/><line class="handleLine" id="path0l11" style="fill:none;stroke:red;stroke-width:0.5;stroke-dasharray:1, 1;" x1="71.03266143798828" y1="112.01648712158203" x2="63.64238357543945" y2="108.285888671875"/><line class="handleLine" id="path0l21" style="fill:none;stroke:red;stroke-width:0.5;stroke-dasharray:1, 1;" x1="71.03266143798828" y1="112.01648712158203" x2="74.31925964355469" y2="113.6755599975586"/><circle cx="52.37084197998047" cy="111.74919891357422" r="3" id="path0p2" class="point" style="fill:none;stroke:red;stroke-width:0.5;"/><circle cx="47.50145721435547" cy="114.0294418334961" r="1" id="path0h12" class="handlePoint" style="fill:red;stroke:none;stroke-width:0.5;"/><circle cx="59.881675720214844" cy="108.23201751708984" r="1" id="path0h22" class="handlePoint" style="fill:none;stroke:red;stroke-width:0.5;"/><line class="handleLine" id="path0l12" style="fill:none;stroke:red;stroke-width:0.5;stroke-dasharray:1, 1;" x1="52.37084197998047" y1="111.74919891357422" x2="47.50145721435547" y2="114.0294418334961"/><line class="handleLine" id="path0l22" style="fill:none;stroke:red;stroke-width:0.5;stroke-dasharray:1, 1;" x1="52.37084197998047" y1="111.74919891357422" x2="59.881675720214844" y2="108.23201751708984"/><circle cx="38.5" cy="114.49919891357422" r="3" id="path0p3" class="point" style="fill:none;stroke:red;stroke-width:0.5;"/><circle cx="31.753965377807617" cy="114.4998779296875" r="1" id="path0h13" class="handlePoint" style="fill:red;stroke:none;stroke-width:0.5;"/><circle cx="45.135345458984375" cy="114.49854278564453" r="1" id="path0h23" class="handlePoint" style="fill:none;stroke:red;stroke-width:0.5;"/><line class="handleLine" id="path0l13" style="fill:none;stroke:red;stroke-width:0.5;stroke-dasharray:1, 1;" x1="38.5" y1="114.49919891357422" x2="31.753965377807617" y2="114.4998779296875"/><line class="handleLine" id="path0l23" style="fill:none;stroke:red;stroke-width:0.5;stroke-dasharray:1, 1;" x1="38.5" y1="114.49919891357422" x2="45.135345458984375" y2="114.49854278564453"/><circle cx="24.775753021240234" cy="111.68904876708984" r="3" id="path0p4" class="point" style="fill:none;stroke:red;stroke-width:0.5;"/><circle cx="7.318105220794678" cy="103.11630249023438" r="1" id="path0h14" class="handlePoint" style="fill:red;stroke:none;stroke-width:0.5;"/><circle cx="29.60274887084961" cy="114.05940246582031" r="1" id="path0h24" class="handlePoint" style="fill:none;stroke:red;stroke-width:0.5;"/><line class="handleLine" id="path0l14" style="fill:none;stroke:red;stroke-width:0.5;stroke-dasharray:1, 1;" x1="24.775753021240234" y1="111.68904876708984" x2="7.318105220794678" y2="103.11630249023438"/><line class="handleLine" id="path0l24" style="fill:none;stroke:red;stroke-width:0.5;stroke-dasharray:1, 1;" x1="24.775753021240234" y1="111.68904876708984" x2="29.60274887084961" y2="114.05940246582031"/><circle cx="17.798019409179688" cy="68.7933120727539" r="3" id="path0p5" class="point" style="fill:none;stroke:red;stroke-width:0.5;"/><circle cx="24.49772834777832" cy="62.7537727355957" r="1" id="path0h15" class="handlePoint" style="fill:red;stroke:none;stroke-width:0.5;"/><circle cx="3.7891223430633545" cy="81.42181396484375" r="1" id="path0h25" class="handlePoint" style="fill:none;stroke:red;stroke-width:0.5;"/><line class="handleLine" id="path0l15" style="fill:none;stroke:red;stroke-width:0.5;stroke-dasharray:1, 1;" x1="17.798019409179688" y1="68.7933120727539" x2="24.49772834777832" y2="62.7537727355957"/><line class="handleLine" id="path0l25" style="fill:none;stroke:red;stroke-width:0.5;stroke-dasharray:1, 1;" x1="17.798019409179688" y1="68.7933120727539" x2="3.7891223430633545" y2="81.42181396484375"/><circle cx="40.11163330078125" cy="59.94304656982422" r="3" id="path0p6" class="point" style="fill:none;stroke:red;stroke-width:0.5;"/><circle cx="56.51131057739258" cy="58.51854705810547" r="1" id="path0h16" class="handlePoint" style="fill:red;stroke:none;stroke-width:0.5;"/><circle cx="29.193090438842773" cy="60.891448974609375" r="1" id="path0h26" class="handlePoint" style="fill:none;stroke:red;stroke-width:0.5;"/><line class="handleLine" id="path0l16" style="fill:none;stroke:red;stroke-width:0.5;stroke-dasharray:1, 1;" x1="40.11163330078125" y1="59.94304656982422" x2="56.51131057739258" y2="58.51854705810547"/><line class="handleLine" id="path0l26" style="fill:none;stroke:red;stroke-width:0.5;stroke-dasharray:1, 1;" x1="40.11163330078125" y1="59.94304656982422" x2="29.193090438842773" y2="60.891448974609375"/><circle cx="60.994422912597656" cy="42.345706939697266" r="3" id="path0p7" class="point" style="fill:none;stroke:red;stroke-width:0.5;"/><circle cx="60.991355895996094" cy="38.580570220947266" r="1" id="path0h17" class="handlePoint" style="fill:red;stroke:none;stroke-width:0.5;"/><circle cx="61.004512786865234" cy="54.73225402832031" r="1" id="path0h27" class="handlePoint" style="fill:none;stroke:red;stroke-width:0.5;"/><line class="handleLine" id="path0l17" style="fill:none;stroke:red;stroke-width:0.5;stroke-dasharray:1, 1;" x1="60.994422912597656" y1="42.345706939697266" x2="60.991355895996094" y2="38.580570220947266"/><line class="handleLine" id="path0l27" style="fill:none;stroke:red;stroke-width:0.5;stroke-dasharray:1, 1;" x1="60.994422912597656" y1="42.345706939697266" x2="61.004512786865234" y2="54.73225402832031"/><circle cx="59.8913459777832" cy="31.546924591064453" r="3" id="path0p8" class="point" style="fill:none;stroke:red;stroke-width:0.5;"/><circle cx="58.42696762084961" cy="26.272384643554688" r="1" id="path0h18" class="handlePoint" style="fill:red;stroke:none;stroke-width:0.5;"/><circle cx="60.494972229003906" cy="33.72111511230469" r="1" id="path0h28" class="handlePoint" style="fill:none;stroke:red;stroke-width:0.5;"/><line class="handleLine" id="path0l18" style="fill:none;stroke:red;stroke-width:0.5;stroke-dasharray:1, 1;" x1="59.8913459777832" y1="31.546924591064453" x2="58.42696762084961" y2="26.272384643554688"/><line class="handleLine" id="path0l28" style="fill:none;stroke:red;stroke-width:0.5;stroke-dasharray:1, 1;" x1="59.8913459777832" y1="31.546924591064453" x2="60.494972229003906" y2="33.72111511230469"/><circle cx="49.25498962402344" cy="21" r="3" id="path0p9" class="point" style="fill:none;stroke:red;stroke-width:0.5;"/><circle cx="44.526641845703125" cy="21" r="1" id="path0h19" class="handlePoint" style="fill:red;stroke:none;stroke-width:0.5;"/><circle cx="53.1098747253418" cy="21" r="1" id="path0h29" class="handlePoint" style="fill:none;stroke:red;stroke-width:0.5;"/><line class="handleLine" id="path0l19" style="fill:none;stroke:red;stroke-width:0.5;stroke-dasharray:1, 1;" x1="49.25498962402344" y1="21" x2="44.526641845703125" y2="21"/><line class="handleLine" id="path0l29" style="fill:none;stroke:red;stroke-width:0.5;stroke-dasharray:1, 1;" x1="49.25498962402344" y1="21" x2="53.1098747253418" y2="21"/><circle cx="42.316043853759766" cy="32.21015930175781" r="3" id="path0p10" class="point" style="fill:none;stroke:red;stroke-width:0.5;"/><circle cx="41.9477424621582" cy="40.23760986328125" r="1" id="path0h110" class="handlePoint" style="fill:red;stroke:none;stroke-width:0.5;"/><circle cx="42.69457244873047" cy="23.959787368774414" r="1" id="path0h210" class="handlePoint" style="fill:none;stroke:red;stroke-width:0.5;"/><line class="handleLine" id="path0l110" style="fill:none;stroke:red;stroke-width:0.5;stroke-dasharray:1, 1;" x1="42.316043853759766" y1="32.21015930175781" x2="41.9477424621582" y2="40.23760986328125"/><line class="handleLine" id="path0l210" style="fill:none;stroke:red;stroke-width:0.5;stroke-dasharray:1, 1;" x1="42.316043853759766" y1="32.21015930175781" x2="42.69457244873047" y2="23.959787368774414"/><circle cx="35.82783508300781" cy="45.58903121948242" r="3" id="path0p11" class="point" style="fill:none;stroke:red;stroke-width:0.5;"/><circle cx="27.313570022583008" cy="49.99192810058594" r="1" id="path0h111" class="handlePoint" style="fill:red;stroke:none;stroke-width:0.5;"/><circle cx="40.53232192993164" cy="43.156246185302734" r="1" id="path0h211" class="handlePoint" style="fill:none;stroke:red;stroke-width:0.5;"/><line class="handleLine" id="path0l111" style="fill:none;stroke:red;stroke-width:0.5;stroke-dasharray:1, 1;" x1="35.82783508300781" y1="45.58903121948242" x2="27.313570022583008" y2="49.99192810058594"/><line class="handleLine" id="path0l211" style="fill:none;stroke:red;stroke-width:0.5;stroke-dasharray:1, 1;" x1="35.82783508300781" y1="45.58903121948242" x2="40.53232192993164" y2="43.156246185302734"/><circle cx="16.021961212158203" cy="32.28211975097656" r="3" id="path0p12" class="point" style="fill:none;stroke:red;stroke-width:0.5;"/><circle cx="16.082305908203125" cy="24.637893676757812" r="1" id="path0h112" class="handlePoint" style="fill:red;stroke:none;stroke-width:0.5;"/><circle cx="15.942469596862793" cy="42.3520622253418" r="1" id="path0h212" class="handlePoint" style="fill:none;stroke:red;stroke-width:0.5;"/><line class="handleLine" id="path0l112" style="fill:none;stroke:red;stroke-width:0.5;stroke-dasharray:1, 1;" x1="16.021961212158203" y1="32.28211975097656" x2="16.082305908203125" y2="24.637893676757812"/><line class="handleLine" id="path0l212" style="fill:none;stroke:red;stroke-width:0.5;stroke-dasharray:1, 1;" x1="16.021961212158203" y1="32.28211975097656" x2="15.942469596862793" y2="42.3520622253418"/><circle cx="34.3294792175293" cy="11.30396842956543" r="3" id="path0p13" class="point" style="fill:none;stroke:red;stroke-width:0.5;"/><circle cx="41.60820007324219" cy="8.764460563659668" r="1" id="path0h113" class="handlePoint" style="fill:red;stroke:none;stroke-width:0.5;"/><circle cx="24.82476806640625" cy="14.620112419128418" r="1" id="path0h213" class="handlePoint" style="fill:none;stroke:red;stroke-width:0.5;"/><line class="handleLine" id="path0l113" style="fill:none;stroke:red;stroke-width:0.5;stroke-dasharray:1, 1;" x1="34.3294792175293" y1="11.30396842956543" x2="41.60820007324219" y2="8.764460563659668"/><line class="handleLine" id="path0l213" style="fill:none;stroke:red;stroke-width:0.5;stroke-dasharray:1, 1;" x1="34.3294792175293" y1="11.30396842956543" x2="24.82476806640625" y2="14.620112419128418"/><circle cx="62.71920394897461" cy="11.740939140319824" r="3" id="path0p14" class="point" style="fill:none;stroke:red;stroke-width:0.5;"/><circle cx="74.0839614868164" cy="16.19066047668457" r="1" id="path0h114" class="handlePoint" style="fill:red;stroke:none;stroke-width:0.5;"/><circle cx="55.66994857788086" cy="8.980896949768066" r="1" id="path0h214" class="handlePoint" style="fill:none;stroke:red;stroke-width:0.5;"/><line class="handleLine" id="path0l114" style="fill:none;stroke:red;stroke-width:0.5;stroke-dasharray:1, 1;" x1="62.71920394897461" y1="11.740939140319824" x2="74.0839614868164" y2="16.19066047668457"/><line class="handleLine" id="path0l214" style="fill:none;stroke:red;stroke-width:0.5;stroke-dasharray:1, 1;" x1="62.71920394897461" y1="11.740939140319824" x2="55.66994857788086" y2="8.980896949768066"/><circle cx="85.63380432128906" cy="36" r="3" id="path0p15" class="point" style="fill:none;stroke:red;stroke-width:0.5;"/><circle cx="87.30084991455078" cy="40.91306686401367" r="1" id="path0h115" class="handlePoint" style="fill:red;stroke:none;stroke-width:0.5;"/><circle cx="81.6190414428711" cy="24.167844772338867" r="1" id="path0h215" class="handlePoint" style="fill:none;stroke:red;stroke-width:0.5;"/><line class="handleLine" id="path0l115" style="fill:none;stroke:red;stroke-width:0.5;stroke-dasharray:1, 1;" x1="85.63380432128906" y1="36" x2="87.30084991455078" y2="40.91306686401367"/><line class="handleLine" id="path0l215" style="fill:none;stroke:red;stroke-width:0.5;stroke-dasharray:1, 1;" x1="85.63380432128906" y1="36" x2="81.6190414428711" y2="24.167844772338867"/><circle cx="87.21561431884766" cy="67.59446716308594" r="3" id="path0p16" class="point" style="fill:none;stroke:red;stroke-width:0.5;"/><circle cx="87.0462646484375" cy="83.13402557373047" r="1" id="path0h116" class="handlePoint" style="fill:red;stroke:none;stroke-width:0.5;"/><circle cx="87.46965026855469" cy="44.284671783447266" r="1" id="path0h216" class="handlePoint" style="fill:none;stroke:red;stroke-width:0.5;"/><line class="handleLine" id="path0l116" style="fill:none;stroke:red;stroke-width:0.5;stroke-dasharray:1, 1;" x1="87.21561431884766" y1="67.59446716308594" x2="87.0462646484375" y2="83.13402557373047"/><line class="handleLine" id="path0l216" style="fill:none;stroke:red;stroke-width:0.5;stroke-dasharray:1, 1;" x1="87.21561431884766" y1="67.59446716308594" x2="87.46965026855469" y2="44.284671783447266"/><circle cx="87.92098999023438" cy="96.29219055175781" r="3" id="path0p17" class="point" style="fill:none;stroke:red;stroke-width:0.5;"/><circle cx="88.4653549194336" cy="97.72398376464844" r="1" id="path0h117" class="handlePoint" style="fill:red;stroke:none;stroke-width:0.5;"/><circle cx="87.33158111572266" cy="94.7419204711914" r="1" id="path0h217" class="handlePoint" style="fill:none;stroke:red;stroke-width:0.5;"/><line class="handleLine" id="path0l117" style="fill:none;stroke:red;stroke-width:0.5;stroke-dasharray:1, 1;" x1="87.92098999023438" y1="96.29219055175781" x2="88.4653549194336" y2="97.72398376464844"/><line class="handleLine" id="path0l217" style="fill:none;stroke:red;stroke-width:0.5;stroke-dasharray:1, 1;" x1="87.92098999023438" y1="96.29219055175781" x2="87.33158111572266" y2="94.7419204711914"/><circle cx="92.32269287109375" cy="102.69772338867188" r="3" id="path0p18" class="point" style="fill:none;stroke:red;stroke-width:0.5;"/><circle cx="97.06388854980469" cy="107.9813232421875" r="1" id="path0h118" class="handlePoint" style="fill:red;stroke:none;stroke-width:0.5;"/><circle cx="90.44612121582031" cy="100.6064682006836" r="1" id="path0h218" class="handlePoint" style="fill:none;stroke:red;stroke-width:0.5;"/><line class="handleLine" id="path0l118" style="fill:none;stroke:red;stroke-width:0.5;stroke-dasharray:1, 1;" x1="92.32269287109375" y1="102.69772338867188" x2="97.06388854980469" y2="107.9813232421875"/><line class="handleLine" id="path0l218" style="fill:none;stroke:red;stroke-width:0.5;stroke-dasharray:1, 1;" x1="92.32269287109375" y1="102.69772338867188" x2="90.44612121582031" y2="100.6064682006836"/><circle cx="94.78629302978516" cy="113.38420104980469" r="3" id="path0p19" class="point" style="fill:none;stroke:red;stroke-width:0.5;"/><circle cx="92.14472198486328" cy="116.3652572631836" r="1" id="path0h119" class="handlePoint" style="fill:red;stroke:none;stroke-width:0.5;"/><circle cx="97.58208465576172" cy="110.22911071777344" r="1" id="path0h219" class="handlePoint" style="fill:none;stroke:red;stroke-width:0.5;"/><line class="handleLine" id="path0l119" style="fill:none;stroke:red;stroke-width:0.5;stroke-dasharray:1, 1;" x1="94.78629302978516" y1="113.38420104980469" x2="92.14472198486328" y2="116.3652572631836"/><line class="handleLine" id="path0l219" style="fill:none;stroke:red;stroke-width:0.5;stroke-dasharray:1, 1;" x1="94.78629302978516" y1="113.38420104980469" x2="97.58208465576172" y2="110.22911071777344"/><circle cx="80.754150390625" cy="115.95903015136719" r="3" id="path0p20" class="point" style="fill:none;stroke:red;stroke-width:0.5;"/><circle cx="78.69393157958984" cy="115.44969940185547" r="1" id="path0h120" class="handlePoint" style="fill:red;stroke:none;stroke-width:0.5;"/><circle cx="86.54994201660156" cy="117.39187622070312" r="1" id="path0h220" class="handlePoint" style="fill:none;stroke:red;stroke-width:0.5;"/><line class="handleLine" id="path0l120" style="fill:none;stroke:red;stroke-width:0.5;stroke-dasharray:1, 1;" x1="80.754150390625" y1="115.95903015136719" x2="78.69393157958984" y2="115.44969940185547"/><line class="handleLine" id="path0l220" style="fill:none;stroke:red;stroke-width:0.5;stroke-dasharray:1, 1;" x1="80.754150390625" y1="115.95903015136719" x2="86.54994201660156" y2="117.39187622070312"/><circle cx="59" cy="79.45335388183594" r="3" id="path0p23" class="point" style="fill:none;stroke:red;stroke-width:0.5;"/><circle cx="59" cy="71.10955047607422" r="1" id="path0h123" class="handlePoint" style="fill:red;stroke:none;stroke-width:0.5;"/><circle cx="59" cy="88.00784301757812" r="1" id="path0h223" class="handlePoint" style="fill:none;stroke:red;stroke-width:0.5;"/><line class="handleLine" id="path0l123" style="fill:none;stroke:red;stroke-width:0.5;stroke-dasharray:1, 1;" x1="59" y1="79.45335388183594" x2="59" y2="71.10955047607422"/><line class="handleLine" id="path0l223" style="fill:none;stroke:red;stroke-width:0.5;stroke-dasharray:1, 1;" x1="59" y1="79.45335388183594" x2="59" y2="88.00784301757812"/><circle cx="50.504146575927734" cy="68" r="3" id="path0p24" class="point" style="fill:none;stroke:red;stroke-width:0.5;"/><circle cx="42.478248596191406" cy="68" r="1" id="path0h124" class="handlePoint" style="fill:red;stroke:none;stroke-width:0.5;"/><circle cx="56.69340133666992" cy="68" r="1" id="path0h224" class="handlePoint" style="fill:none;stroke:red;stroke-width:0.5;"/><line class="handleLine" id="path0l124" style="fill:none;stroke:red;stroke-width:0.5;stroke-dasharray:1, 1;" x1="50.504146575927734" y1="68" x2="42.478248596191406" y2="68"/><line class="handleLine" id="path0l224" style="fill:none;stroke:red;stroke-width:0.5;stroke-dasharray:1, 1;" x1="50.504146575927734" y1="68" x2="56.69340133666992" y2="68"/><circle cx="36.0219612121582" cy="86.68489837646484" r="3" id="path0p25" class="point" style="fill:none;stroke:red;stroke-width:0.5;"/><circle cx="35.98208999633789" cy="96.09835815429688" r="1" id="path0h125" class="handlePoint" style="fill:red;stroke:none;stroke-width:0.5;"/><circle cx="36.066062927246094" cy="76.27299499511719" r="1" id="path0h225" class="handlePoint" style="fill:none;stroke:red;stroke-width:0.5;"/><line class="handleLine" id="path0l125" style="fill:none;stroke:red;stroke-width:0.5;stroke-dasharray:1, 1;" x1="36.0219612121582" y1="86.68489837646484" x2="35.98208999633789" y2="96.09835815429688"/><line class="handleLine" id="path0l225" style="fill:none;stroke:red;stroke-width:0.5;stroke-dasharray:1, 1;" x1="36.0219612121582" y1="86.68489837646484" x2="36.066062927246094" y2="76.27299499511719"/><circle cx="45.923274993896484" cy="101" r="3" id="path0p26" class="point" style="fill:none;stroke:red;stroke-width:0.5;"/><circle cx="48.67963790893555" cy="101" r="1" id="path0h126" class="handlePoint" style="fill:red;stroke:none;stroke-width:0.5;"/><circle cx="39.37240219116211" cy="101" r="1" id="path0h226" class="handlePoint" style="fill:none;stroke:red;stroke-width:0.5;"/><line class="handleLine" id="path0l126" style="fill:none;stroke:red;stroke-width:0.5;stroke-dasharray:1, 1;" x1="45.923274993896484" y1="101" x2="48.67963790893555" y2="101"/><line class="handleLine" id="path0l226" style="fill:none;stroke:red;stroke-width:0.5;stroke-dasharray:1, 1;" x1="45.923274993896484" y1="101" x2="39.37240219116211" y2="101"/><circle cx="52.906822204589844" cy="98.4249496459961" r="3" id="path0p27" class="point" style="fill:none;stroke:red;stroke-width:0.5;"/><circle cx="78.69393157958984" cy="115.44969940185547" r="1" id="path0h127" class="handlePoint" style="fill:red;stroke:none;stroke-width:0.5;"/><circle cx="50.75677490234375" cy="100.23410034179688" r="1" id="path0h227" class="handlePoint" style="fill:none;stroke:red;stroke-width:0.5;"/><line class="handleLine" id="path0l127" style="fill:none;stroke:red;stroke-width:0.5;stroke-dasharray:1, 1;" x1="52.906822204589844" y1="98.4249496459961" x2="78.69393157958984" y2="115.44969940185547"/><line class="handleLine" id="path0l227" style="fill:none;stroke:red;stroke-width:0.5;stroke-dasharray:1, 1;" x1="52.906822204589844" y1="98.4249496459961" x2="50.75677490234375" y2="100.23410034179688"/><text x="10" y="10" style="font-size: 10px;">25</text></svg>