<svg xmlns="http://www.w3.org/2000/svg" viewBox="0 0 111 129" height="129" width="111">
  <path d="M80.754147 115.95903c-7.681154-1.74871-14.496049-8.60269-22.832877-6.28955-6.134233 1.77239-11.789406 5.67641-18.507258 5.33407-6.777876-.3454-13.70747-1.75924-19.159109-5.96915-10.2697882-7.20631-14.580681-22.400351-7.89-33.40782 5.277688-9.549532 15.910781-15.226968 26.66719-15.584211 6.733928-.742611 14.888878-.958902 19.420971-6.770484 3.819037-5.935682 2.462962-13.387925 1.836932-20.00002-1.150603-5.877981-5.76384-12.257642-12.236709-12.285973-6.473122 1.618834-5.435748 9.712708-6.006097 14.836177-.036046 6.579739-6.26172 11.850154-12.726292 10.978511-8.80472-.787257-15.94705-10.712045-12.205266-19.306447 4.434711-10.185966 14.802424-17.31625 25.811723-17.7940703C54.250258 8.6309036 66.5406 11.034593 74.932214 19.196135c8.478877 7.632377 13.008924 19.134252 12.345481 30.491519.228543 15.186487-.659767 30.396086.436815 45.563699 1.287219 6.322367 10.815043 9.639867 8.281805 16.884017-3.072062 4.95918-10.176727 5.02717-15.242168 3.82366zM52.906821 98.424951c6.1436-6.219848 6.646642-15.673963 5.883722-23.839057-.596265-6.381481-8.668429-8.341771-13.614229-5.268933-8.785921 4.801184-10.947123 16.755091-7.912765 25.627168 2.030096 6.728531 10.886192 7.836791 15.643272 3.480822z"/>
</svg>
