<?xml version="1.0" encoding="UTF-8" standalone="no"?>
<!-- Created with Inkscape (http://www.inkscape.org/) -->

<svg
   xmlns:dc="http://purl.org/dc/elements/1.1/"
   xmlns:cc="http://creativecommons.org/ns#"
   xmlns:rdf="http://www.w3.org/1999/02/22-rdf-syntax-ns#"
   xmlns:svg="http://www.w3.org/2000/svg"
   xmlns="http://www.w3.org/2000/svg"
   xmlns:sodipodi="http://sodipodi.sourceforge.net/DTD/sodipodi-0.dtd"
   xmlns:inkscape="http://www.inkscape.org/namespaces/inkscape"
   id="svg2"
   version="1.1"
   inkscape:version="0.91 r13725"
   width="111"
   height="129"
   viewBox="0 0 111 129"
   sodipodi:docname="a30-vectInk-simp26.svg">
  <metadata
     id="metadata8">
    <rdf:RDF>
      <cc:Work
         rdf:about="">
        <dc:format>image/svg+xml</dc:format>
        <dc:type
           rdf:resource="http://purl.org/dc/dcmitype/StillImage" />
        <dc:title></dc:title>
      </cc:Work>
    </rdf:RDF>
  </metadata>
  <defs
     id="defs6" />
  <sodipodi:namedview
     pagecolor="#ffffff"
     bordercolor="#666666"
     borderopacity="1"
     objecttolerance="10"
     gridtolerance="10"
     guidetolerance="10"
     inkscape:pageopacity="0"
     inkscape:pageshadow="2"
     inkscape:window-width="1366"
     inkscape:window-height="721"
     id="namedview4"
     showgrid="false"
     inkscape:zoom="1.8294574"
     inkscape:cx="-9.8199153"
     inkscape:cy="64.5"
     inkscape:window-x="0"
     inkscape:window-y="0"
     inkscape:window-maximized="1"
     inkscape:current-layer="svg2" />
  <path
     style="fill:#000000"
     d="M 80.754147,115.95903 C 73.199527,113.80024 66.186543,108.00164 57.921057,109.67154 46.007214,116.05184 29.942126,117.14378 18.949267,108.27676 7.4362306,99.30904 5.6118832,79.691185 16.767873,69.709213 24.915455,61.287201 37.228369,58.872471 48.525056,59.111783 57.100176,57.49635 62.794747,48.14681 61.094181,39.740087 60.938885,32.787326 58.367411,24.926047 51.753724,21.606039 45.764312,20.284337 40.168702,27.348429 42.479184,32.925846 43.657903,41.48561 34.12886,49.972332 25.853266,46.243399 16.877048,43.269852 12.734732,30.57092 19.195952,23.29988 27.626925,10.452012 45.172476,6.428133 59.370486,10.590411 73.94632,14.692307 86.22772,27.927285 86.914271,43.407798 89.05012,61.025138 84.742154,78.906244 88.329788,96.414538 90.529438,101.55896 97.365812,105.86551 94.901566,112.16829 92.539092,117.45793 85.487496,117.57195 80.754147,115.95903 Z M 52.906821,98.424951 C 58.990411,91.32646 60.30125,81.132992 58.074506,72.266612 54.171221,66.061146 43.548527,66.913153 40.400961,73.425573 34.742108,80.499072 34.276686,91.369839 39.653723,98.732061 43.315602,101.96654 49.358688,101.68852 52.906821,98.424951 Z"
     id="path4138"
     inkscape:connector-curvature="0" />
</svg>
