<?xml version="1.0" encoding="UTF-8" standalone="no"?>
<!-- Created with Inkscape (http://www.inkscape.org/) -->

<svg
   xmlns:dc="http://purl.org/dc/elements/1.1/"
   xmlns:cc="http://creativecommons.org/ns#"
   xmlns:rdf="http://www.w3.org/1999/02/22-rdf-syntax-ns#"
   xmlns:svg="http://www.w3.org/2000/svg"
   xmlns="http://www.w3.org/2000/svg"
   xmlns:sodipodi="http://sodipodi.sourceforge.net/DTD/sodipodi-0.dtd"
   xmlns:inkscape="http://www.inkscape.org/namespaces/inkscape"
   id="svg2"
   version="1.1"
   inkscape:version="0.91 r13725"
   width="111"
   height="129"
   viewBox="0 0 111 129"
   sodipodi:docname="a30-vectInk-simp20.svg">
  <metadata
     id="metadata8">
    <rdf:RDF>
      <cc:Work
         rdf:about="">
        <dc:format>image/svg+xml</dc:format>
        <dc:type
           rdf:resource="http://purl.org/dc/dcmitype/StillImage" />
        <dc:title></dc:title>
      </cc:Work>
    </rdf:RDF>
  </metadata>
  <defs
     id="defs6" />
  <sodipodi:namedview
     pagecolor="#ffffff"
     bordercolor="#666666"
     borderopacity="1"
     objecttolerance="10"
     gridtolerance="10"
     guidetolerance="10"
     inkscape:pageopacity="0"
     inkscape:pageshadow="2"
     inkscape:window-width="1366"
     inkscape:window-height="721"
     id="namedview4"
     showgrid="false"
     inkscape:zoom="1.8294574"
     inkscape:cx="-9.8199153"
     inkscape:cy="64.5"
     inkscape:window-x="0"
     inkscape:window-y="0"
     inkscape:window-maximized="1"
     inkscape:current-layer="svg2" />
  <path
     style="fill:#000000"
     d="M 80.754147,115.95903 C 73.17195,113.88894 66.202068,107.8651 57.921057,109.67154 46.698783,115.37111 32.097892,117.2917 21.185667,109.85109 9.2584474,102.25611 4.9216524,83.951502 14.227899,72.692375 21.5046,62.862497 34.377506,58.752182 46.236867,59.409775 53.989885,58.825233 61.550175,52.202054 60.957893,44.015498 61.65419,36.063026 59.84332,26.814583 52.886884,21.982245 46.967805,19.378662 40.259297,26.391783 42.420347,32.265282 43.073967,38.947843 38.584109,46.871155 31.222625,46.887514 21.398909,47.762265 12.648059,36.313341 17.187386,27.200769 21.539579,15.895893 33.918417,9.9674037 45.41,9.1244034 63.078803,7.84337 82.027918,19.434336 85.902292,37.31101 89.113897,51.769572 86.480302,66.608521 87.001862,81.240542 86.974509,88.421962 86.629556,96.747311 92.101577,102.23417 96.889815,106.17715 96.817656,114.98946 89.875272,116.36263 86.877844,117.14265 83.710081,116.70937 80.754147,115.95903 Z M 52.906821,98.424951 C 59.055583,91.352828 60.234331,81.13105 58.074506,72.266612 54.207381,65.98137 43.582691,66.974984 40.400961,73.425573 34.767675,80.506316 34.249845,91.376046 39.653723,98.732061 43.315561,101.96669 49.358647,101.68837 52.906821,98.424951 Z"
     id="path4138"
     inkscape:connector-curvature="0" />
</svg>
