<?xml version="1.0" encoding="UTF-8" standalone="no"?>
<!-- Created with Inkscape (http://www.inkscape.org/) -->

<svg
   xmlns:dc="http://purl.org/dc/elements/1.1/"
   xmlns:cc="http://creativecommons.org/ns#"
   xmlns:rdf="http://www.w3.org/1999/02/22-rdf-syntax-ns#"
   xmlns:svg="http://www.w3.org/2000/svg"
   xmlns="http://www.w3.org/2000/svg"
   xmlns:sodipodi="http://sodipodi.sourceforge.net/DTD/sodipodi-0.dtd"
   xmlns:inkscape="http://www.inkscape.org/namespaces/inkscape"
   id="svg2"
   version="1.1"
   inkscape:version="0.91 r13725"
   width="111"
   height="129"
   viewBox="0 0 111 129"
   sodipodi:docname="a30-vectInk-simp6.svg">
  <metadata
     id="metadata8">
    <rdf:RDF>
      <cc:Work
         rdf:about="">
        <dc:format>image/svg+xml</dc:format>
        <dc:type
           rdf:resource="http://purl.org/dc/dcmitype/StillImage" />
        <dc:title></dc:title>
      </cc:Work>
    </rdf:RDF>
  </metadata>
  <defs
     id="defs6" />
  <sodipodi:namedview
     pagecolor="#ffffff"
     bordercolor="#666666"
     borderopacity="1"
     objecttolerance="10"
     gridtolerance="10"
     guidetolerance="10"
     inkscape:pageopacity="0"
     inkscape:pageshadow="2"
     inkscape:window-width="1366"
     inkscape:window-height="721"
     id="namedview4"
     showgrid="false"
     inkscape:zoom="1.8294574"
     inkscape:cx="-9.8199153"
     inkscape:cy="64.5"
     inkscape:window-x="0"
     inkscape:window-y="0"
     inkscape:window-maximized="1"
     inkscape:current-layer="svg2" />
  <path
     style="fill:#000000"
     d="M 80.754147,115.95903 C 73.097636,114.13074 66.241899,107.48299 57.921057,109.67154 51.193231,112.11789 44.41423,115.5376 37.03622,114.67134 22.615021,114.80252 8.8123056,102.3374 9.1118958,87.58891 9.1606594,74.995414 19.375413,64.158542 31.273609,61.229786 39.842534,58.709159 50.276374,61.130884 57.306144,54.48052 62.330651,48.900915 61.182692,40.720678 60.303501,33.892966 59.413616,28.095937 55.406878,21.884226 49.27131,20.988722 42.116105,21.603485 42.160825,30.067893 42.138588,35.477511 42.327011,42.683568 34.858771,48.267232 27.996511,46.686569 18.87416,45.119679 12.620682,33.406172 18.059239,25.393929 23.817711,13.914433 37.421048,8.3302996 49.799029,9.4205354 64.508957,9.5674693 79.076208,18.648783 84.405839,32.591114 89.040533,44.281404 86.979841,57.037145 87.204499,69.277142 87.075359,78.314789 86.997114,87.382137 87.973679,96.381074 89.700557,101.88952 98.046077,105.33871 95.595297,111.93846 92.908112,117.27522 85.727897,117.0721 80.754147,115.95903 Z M 52.906821,98.424951 C 59.262351,91.442297 60.024599,81.120796 58.074506,72.266612 54.574785,65.854729 44.606309,67.113608 40.956081,72.750455 34.916295,79.824381 33.968532,91.172819 39.653723,98.732061 43.31306,101.96688 49.360995,101.68768 52.906821,98.424951 Z"
     id="path4138"
     inkscape:connector-curvature="0" />
</svg>
