<?xml version="1.0" encoding="UTF-8" standalone="no"?>
<!-- Created with Inkscape (http://www.inkscape.org/) -->

<svg
   xmlns:dc="http://purl.org/dc/elements/1.1/"
   xmlns:cc="http://creativecommons.org/ns#"
   xmlns:rdf="http://www.w3.org/1999/02/22-rdf-syntax-ns#"
   xmlns:svg="http://www.w3.org/2000/svg"
   xmlns="http://www.w3.org/2000/svg"
   xmlns:sodipodi="http://sodipodi.sourceforge.net/DTD/sodipodi-0.dtd"
   xmlns:inkscape="http://www.inkscape.org/namespaces/inkscape"
   id="svg2"
   version="1.1"
   inkscape:version="0.91 r13725"
   width="111"
   height="129"
   viewBox="0 0 111 129"
   sodipodi:docname="a30-vectInk-simp21.svg">
  <metadata
     id="metadata8">
    <rdf:RDF>
      <cc:Work
         rdf:about="">
        <dc:format>image/svg+xml</dc:format>
        <dc:type
           rdf:resource="http://purl.org/dc/dcmitype/StillImage" />
        <dc:title></dc:title>
      </cc:Work>
    </rdf:RDF>
  </metadata>
  <defs
     id="defs6" />
  <sodipodi:namedview
     pagecolor="#ffffff"
     bordercolor="#666666"
     borderopacity="1"
     objecttolerance="10"
     gridtolerance="10"
     guidetolerance="10"
     inkscape:pageopacity="0"
     inkscape:pageshadow="2"
     inkscape:window-width="1366"
     inkscape:window-height="721"
     id="namedview4"
     showgrid="false"
     inkscape:zoom="1.8294574"
     inkscape:cx="-9.8199153"
     inkscape:cy="64.5"
     inkscape:window-x="0"
     inkscape:window-y="0"
     inkscape:window-maximized="1"
     inkscape:current-layer="svg2" />
  <path
     style="fill:#000000"
     d="M 80.754147,115.95903 C 73.176701,113.87361 66.199419,107.88883 57.921057,109.67154 46.712762,115.40339 32.094047,117.25559 21.185667,109.85109 9.0461127,102.20276 4.8971891,83.4167 14.573068,72.235785 21.935332,62.736294 34.554152,58.752092 46.236867,59.409775 54.305741,58.898778 61.857624,51.645799 61.015745,43.266331 61.552209,35.422876 59.558901,26.044192 52.329952,21.766005 46.505855,19.835299 40.329282,26.604995 42.420347,32.265282 43.236706,39.277717 37.974281,47.467843 30.305168,46.933865 20.359313,47.129371 12.374091,34.992312 17.618648,26.156679 23.221214,13.94537 37.643293,8.4035776 50.399633,9.0980842 66.882365,9.9920844 83.303799,21.857686 86.18653,38.667597 89.03412,53.639727 86.353364,68.883598 86.988699,83.979418 86.831995,90.885435 87.628338,98.742103 93.318458,103.46138 96.742547,107.27923 96.040136,114.85251 90.506054,116.21248 87.315806,117.15995 83.925037,116.78323 80.754147,115.95903 Z M 52.906821,98.424951 C 59.043875,91.348079 60.246316,81.131407 58.074506,72.266612 54.199777,65.998216 43.575149,66.961451 40.400961,73.425573 34.762841,80.504946 34.254911,91.374874 39.653723,98.732061 43.315568,101.96667 49.358655,101.68839 52.906821,98.424951 Z"
     id="path4138"
     inkscape:connector-curvature="0" />
</svg>
