<?xml version="1.0" encoding="UTF-8" standalone="no"?>
<!-- Created with Inkscape (http://www.inkscape.org/) -->

<svg
   xmlns:dc="http://purl.org/dc/elements/1.1/"
   xmlns:cc="http://creativecommons.org/ns#"
   xmlns:rdf="http://www.w3.org/1999/02/22-rdf-syntax-ns#"
   xmlns:svg="http://www.w3.org/2000/svg"
   xmlns="http://www.w3.org/2000/svg"
   xmlns:sodipodi="http://sodipodi.sourceforge.net/DTD/sodipodi-0.dtd"
   xmlns:inkscape="http://www.inkscape.org/namespaces/inkscape"
   id="svg2"
   version="1.1"
   inkscape:version="0.91 r13725"
   width="111"
   height="129"
   viewBox="0 0 111 129"
   sodipodi:docname="a30-vectInk-simp16.svg">
  <metadata
     id="metadata8">
    <rdf:RDF>
      <cc:Work
         rdf:about="">
        <dc:format>image/svg+xml</dc:format>
        <dc:type
           rdf:resource="http://purl.org/dc/dcmitype/StillImage" />
        <dc:title></dc:title>
      </cc:Work>
    </rdf:RDF>
  </metadata>
  <defs
     id="defs6" />
  <sodipodi:namedview
     pagecolor="#ffffff"
     bordercolor="#666666"
     borderopacity="1"
     objecttolerance="10"
     gridtolerance="10"
     guidetolerance="10"
     inkscape:pageopacity="0"
     inkscape:pageshadow="2"
     inkscape:window-width="1366"
     inkscape:window-height="721"
     id="namedview4"
     showgrid="false"
     inkscape:zoom="1.8294574"
     inkscape:cx="-9.8199153"
     inkscape:cy="64.5"
     inkscape:window-x="0"
     inkscape:window-y="0"
     inkscape:window-maximized="1"
     inkscape:current-layer="svg2" />
  <path
     style="fill:#000000"
     d="M 80.754147,115.95903 C 73.152266,113.95259 66.212922,107.76588 57.921057,109.67154 47.201056,114.90599 33.591386,117.32261 22.851192,110.84379 11.031468,104.30793 4.9838645,87.660095 12.289021,75.717533 18.590434,64.292054 32.27983,58.820967 44.888938,59.526749 51.86029,59.034723 59.890285,54.835559 60.555934,47.125963 62.025125,38.792784 60.678022,29.091572 54.477945,22.92501 48.670021,18.67195 40.953735,24.340927 42.365712,31.123174 42.695576,37.026106 41.006791,44.148664 34.66081,46.13332 26.189234,49.210269 15.982899,42.216632 16.136749,33.096384 15.94999,23.156641 24.548605,15.69715 32.993601,12.07836 51.875989,3.9075859 76.915584,13.034807 84.473766,32.590764 88.975769,44.387432 87.061244,57.231486 87.193118,69.540367 87.112499,78.126049 86.372369,86.872872 88.019565,95.341728 88.897161,100.9719 95.41543,103.79596 95.827093,109.3202 95.453383,114.44922 89.728583,118.0178 84.913758,116.54834 83.515434,116.44918 82.129484,116.22445 80.754147,115.95903 Z M 52.906821,98.424951 C 59.106174,91.373409 60.182727,81.129463 58.074506,72.266612 54.246688,65.89351 43.623565,67.047434 40.400961,73.425573 34.78973,80.512558 34.226767,91.381392 39.653723,98.732061 43.315533,101.96679 49.35862,101.68827 52.906821,98.424951 Z"
     id="path4138"
     inkscape:connector-curvature="0" />
</svg>
