<?xml version="1.0" encoding="UTF-8" standalone="no"?>
<!-- Created with Inkscape (http://www.inkscape.org/) -->

<svg
   xmlns:dc="http://purl.org/dc/elements/1.1/"
   xmlns:cc="http://creativecommons.org/ns#"
   xmlns:rdf="http://www.w3.org/1999/02/22-rdf-syntax-ns#"
   xmlns:svg="http://www.w3.org/2000/svg"
   xmlns="http://www.w3.org/2000/svg"
   xmlns:sodipodi="http://sodipodi.sourceforge.net/DTD/sodipodi-0.dtd"
   xmlns:inkscape="http://www.inkscape.org/namespaces/inkscape"
   id="svg2"
   version="1.1"
   inkscape:version="0.91 r13725"
   width="111"
   height="129"
   viewBox="0 0 111 129"
   sodipodi:docname="a30-vectInk-simp12.svg">
  <metadata
     id="metadata8">
    <rdf:RDF>
      <cc:Work
         rdf:about="">
        <dc:format>image/svg+xml</dc:format>
        <dc:type
           rdf:resource="http://purl.org/dc/dcmitype/StillImage" />
        <dc:title></dc:title>
      </cc:Work>
    </rdf:RDF>
  </metadata>
  <defs
     id="defs6" />
  <sodipodi:namedview
     pagecolor="#ffffff"
     bordercolor="#666666"
     borderopacity="1"
     objecttolerance="10"
     gridtolerance="10"
     guidetolerance="10"
     inkscape:pageopacity="0"
     inkscape:pageshadow="2"
     inkscape:window-width="1366"
     inkscape:window-height="721"
     id="namedview4"
     showgrid="false"
     inkscape:zoom="1.8294574"
     inkscape:cx="-9.8199153"
     inkscape:cy="64.5"
     inkscape:window-x="0"
     inkscape:window-y="0"
     inkscape:window-maximized="1"
     inkscape:current-layer="svg2" />
  <path
     style="fill:#000000"
     d="M 80.754147,115.95903 C 73.131412,114.02035 66.224194,107.65917 57.921057,109.67154 47.336569,114.65923 34.079364,117.44673 23.425755,111.13959 12.309811,105.10397 5.5379406,90.475417 10.963653,78.481071 15.967451,66.28608 29.49004,59.236792 42.325073,59.708649 49.031989,59.300062 57.379096,57.318015 59.788468,50.148347 62.374975,42.396868 61.044678,33.688081 57.572604,26.44628 54.952203,21.687577 46.736624,18.827172 43.745391,24.723353 40.683874,30.527524 44.30909,38.403404 38.976545,43.277951 33.278224,49.476619 22.173718,47.181604 18.348996,40.007289 14.384151,34.037713 16.031733,25.818886 20.911559,20.886073 31.340422,8.4040743 50.410776,6.2052749 64.762964,12.615515 77.235505,18.0662 86.668962,30.55339 87.02502,44.36343 88.349207,58.804537 86.19895,73.298216 87.335032,87.750268 86.652107,94.267879 89.234434,100.30484 94.027189,104.59502 98.385699,109.47909 94.230199,116.73827 88.029108,116.52539 85.592193,116.76159 83.144283,116.42077 80.754147,115.95903 Z M 52.906821,98.424951 C 59.163389,91.396806 60.124724,81.127587 58.074506,72.266612 54.249799,65.760952 43.757512,67.138458 40.400961,73.425573 34.816835,80.520526 34.198379,91.387648 39.653723,98.732061 43.315503,101.9669 49.358594,101.68817 52.906821,98.424951 Z"
     id="path4138"
     inkscape:connector-curvature="0" />
</svg>
