<?xml version="1.0" encoding="UTF-8" standalone="no"?>
<!-- Created with Inkscape (http://www.inkscape.org/) -->

<svg
   xmlns:dc="http://purl.org/dc/elements/1.1/"
   xmlns:cc="http://creativecommons.org/ns#"
   xmlns:rdf="http://www.w3.org/1999/02/22-rdf-syntax-ns#"
   xmlns:svg="http://www.w3.org/2000/svg"
   xmlns="http://www.w3.org/2000/svg"
   xmlns:sodipodi="http://sodipodi.sourceforge.net/DTD/sodipodi-0.dtd"
   xmlns:inkscape="http://www.inkscape.org/namespaces/inkscape"
   id="svg2"
   version="1.1"
   inkscape:version="0.91 r13725"
   width="111"
   height="129"
   viewBox="0 0 111 129"
   sodipodi:docname="a30-vectInk-simp17.svg">
  <metadata
     id="metadata8">
    <rdf:RDF>
      <cc:Work
         rdf:about="">
        <dc:format>image/svg+xml</dc:format>
        <dc:type
           rdf:resource="http://purl.org/dc/dcmitype/StillImage" />
        <dc:title></dc:title>
      </cc:Work>
    </rdf:RDF>
  </metadata>
  <defs
     id="defs6" />
  <sodipodi:namedview
     pagecolor="#ffffff"
     bordercolor="#666666"
     borderopacity="1"
     objecttolerance="10"
     gridtolerance="10"
     guidetolerance="10"
     inkscape:pageopacity="0"
     inkscape:pageshadow="2"
     inkscape:window-width="1366"
     inkscape:window-height="721"
     id="namedview4"
     showgrid="false"
     inkscape:zoom="1.8294574"
     inkscape:cx="-9.8199153"
     inkscape:cy="64.5"
     inkscape:window-x="0"
     inkscape:window-y="0"
     inkscape:window-maximized="1"
     inkscape:current-layer="svg2" />
  <path
     style="fill:#000000"
     d="M 80.754147,115.95903 C 73.157293,113.93631 66.21017,107.79135 57.921057,109.67154 47.030245,115.04699 33.111218,117.33086 22.301399,110.53007 10.424447,103.63811 4.8939441,86.429356 12.901165,74.663846 19.606472,63.691097 33.133713,58.784708 45.545347,59.469767 52.60089,58.884842 60.393113,54.087826 60.685358,46.340869 61.928281,38.045511 60.510579,28.340943 53.928198,22.555085 48.673803,19.020483 41.198659,24.44933 42.259745,30.490869 43.087479,36.719536 40.75657,44.806548 33.861887,46.392523 24.899092,49.054987 14.712919,40.66171 16.202503,31.26208 17.387931,20.757014 27.20313,13.732039 36.600432,10.747374 55.45939,4.832273 78.820663,14.96252 85.065435,34.256412 89.057846,46.72083 86.882493,59.941914 87.137922,72.766694 87.029095,80.950139 86.341723,89.365684 88.590126,97.33226 90.948648,102.40705 99.197363,107.50026 94.10011,113.56537 90.819258,117.92987 85.349548,116.89164 80.754147,115.95903 Z M 52.906821,98.424951 C 59.092938,91.368015 60.196199,81.129885 58.074506,72.266612 54.23542,65.919037 43.611408,67.026183 40.400961,73.425573 34.78378,80.510875 34.232989,91.37995 39.653723,98.732061 43.315541,101.96677 49.358628,101.68829 52.906821,98.424951 Z"
     id="path4138"
     inkscape:connector-curvature="0" />
</svg>
