<?xml version="1.0" encoding="UTF-8" standalone="no"?>
<!-- Created with Inkscape (http://www.inkscape.org/) -->

<svg
   xmlns:dc="http://purl.org/dc/elements/1.1/"
   xmlns:cc="http://creativecommons.org/ns#"
   xmlns:rdf="http://www.w3.org/1999/02/22-rdf-syntax-ns#"
   xmlns:svg="http://www.w3.org/2000/svg"
   xmlns="http://www.w3.org/2000/svg"
   xmlns:sodipodi="http://sodipodi.sourceforge.net/DTD/sodipodi-0.dtd"
   xmlns:inkscape="http://www.inkscape.org/namespaces/inkscape"
   id="svg2"
   version="1.1"
   inkscape:version="0.91 r13725"
   width="111"
   height="129"
   viewBox="0 0 111 129"
   sodipodi:docname="a30-vectInk-simp30.svg">
  <metadata
     id="metadata8">
    <rdf:RDF>
      <cc:Work
         rdf:about="">
        <dc:format>image/svg+xml</dc:format>
        <dc:type
           rdf:resource="http://purl.org/dc/dcmitype/StillImage" />
        <dc:title></dc:title>
      </cc:Work>
    </rdf:RDF>
  </metadata>
  <defs
     id="defs6" />
  <sodipodi:namedview
     pagecolor="#ffffff"
     bordercolor="#666666"
     borderopacity="1"
     objecttolerance="10"
     gridtolerance="10"
     guidetolerance="10"
     inkscape:pageopacity="0"
     inkscape:pageshadow="2"
     inkscape:window-width="1366"
     inkscape:window-height="721"
     id="namedview4"
     showgrid="false"
     inkscape:zoom="1.8294574"
     inkscape:cx="-9.8199153"
     inkscape:cy="64.5"
     inkscape:window-x="0"
     inkscape:window-y="0"
     inkscape:window-maximized="1"
     inkscape:current-layer="svg2" />
  <path
     style="fill:#000000"
     d="M 80.754147,115.95903 C 73.216752,113.74513 66.176677,108.08544 57.921057,109.67154 45.674939,116.43384 28.844632,116.99936 17.888433,107.40305 6.2632449,97.437127 6.3259865,76.57544 19.100357,67.560233 27.264692,60.862628 38.217455,58.868782 48.525056,59.111783 58.124119,57.338875 63.373876,46.174472 60.937416,37.20628 60.331307,30.927118 57.398081,24.030749 51.1936,21.506396 44.195788,20.665744 40.405368,29.205681 42.428045,35.016819 42.456146,43.885812 31.288677,50.312317 23.704667,45.433117 15.39085,40.865891 13.374295,27.939861 20.521313,21.463479 32.040709,7.0725812 54.62792,5.3774383 69.617471,15.156342 80.264666,21.809577 87.400735,33.992608 87.236331,46.637545 88.548681,63.208079 84.969961,79.976055 88.329788,96.414538 90.724598,101.54071 97.450679,106.24973 94.675717,112.56527 92.11969,117.52332 85.349929,117.50551 80.754147,115.95903 Z M 52.906821,98.424951 C 58.953127,91.31145 60.339758,81.13405 58.074506,72.266612 54.156253,66.093561 43.5367,66.890935 40.400961,73.425573 34.729008,80.495361 34.290515,91.366642 39.653723,98.732061 43.315629,101.96644 49.358716,101.68862 52.906821,98.424951 Z"
     id="path4138"
     inkscape:connector-curvature="0" />
</svg>
