<?xml version="1.0" encoding="UTF-8" standalone="no"?>
<!-- Created with Inkscape (http://www.inkscape.org/) -->

<svg
   xmlns:dc="http://purl.org/dc/elements/1.1/"
   xmlns:cc="http://creativecommons.org/ns#"
   xmlns:rdf="http://www.w3.org/1999/02/22-rdf-syntax-ns#"
   xmlns:svg="http://www.w3.org/2000/svg"
   xmlns="http://www.w3.org/2000/svg"
   xmlns:sodipodi="http://sodipodi.sourceforge.net/DTD/sodipodi-0.dtd"
   xmlns:inkscape="http://www.inkscape.org/namespaces/inkscape"
   id="svg2"
   version="1.1"
   inkscape:version="0.91 r13725"
   width="111"
   height="129"
   viewBox="0 0 111 129"
   sodipodi:docname="a30-vectInk-simp1.svg">
  <metadata
     id="metadata8">
    <rdf:RDF>
      <cc:Work
         rdf:about="">
        <dc:format>image/svg+xml</dc:format>
        <dc:type
           rdf:resource="http://purl.org/dc/dcmitype/StillImage" />
        <dc:title></dc:title>
      </cc:Work>
    </rdf:RDF>
  </metadata>
  <defs
     id="defs6" />
  <sodipodi:namedview
     pagecolor="#ffffff"
     bordercolor="#666666"
     borderopacity="1"
     objecttolerance="10"
     gridtolerance="10"
     guidetolerance="10"
     inkscape:pageopacity="0"
     inkscape:pageshadow="2"
     inkscape:window-width="1366"
     inkscape:window-height="721"
     id="namedview4"
     showgrid="false"
     inkscape:zoom="1.8294574"
     inkscape:cx="-9.8199153"
     inkscape:cy="64.5"
     inkscape:window-x="0"
     inkscape:window-y="0"
     inkscape:window-maximized="1"
     inkscape:current-layer="svg2" />
  <path
     style="fill:#000000"
     d="M 80.754147,115.95903 C 73.50991,114.33231 67.396637,108.30696 59.62761,109.30448 53.476308,110.30883 48.285986,114.77976 41.826755,114.44057 35.431692,114.77311 28.71564,114.47639 23.180015,110.84759 12.315813,105.12773 6.2232001,91.335748 10.523305,79.617877 13.739277,70.787481 21.710349,63.841877 30.723762,61.377617 39.289141,59.051335 49.192727,60.79378 56.706692,55.255145 62.137236,50.344369 61.086144,42.211539 60.589695,35.625976 60.23817,29.357484 56.248106,22.803554 49.993617,21.060499 44.376657,19.987726 42.366624,26.290716 42.404404,30.724644 42.18198,35.90608 41.988778,42.451393 36.67193,45.126061 27.39486,50.915147 14.511231,41.255697 16.133086,30.823227 18.041917,21.682221 25.860186,14.573274 34.329479,11.303968 43.293581,8.756685 53.097312,8.9167111 62.038212,11.489643 76.684446,16.424024 87.365008,31.173492 87.216182,46.650532 87.633473,62.846457 86.544829,79.077208 87.71451,95.251353 88.936,100.90353 95.217139,103.82855 96.476693,109.43394 96.212446,114.85796 89.637216,116.97186 85.0203,116.58041 83.581942,116.51892 82.151273,116.30422 80.754147,115.95903 Z M 52.906821,98.424951 C 58.562727,92.809944 59.214253,84.109402 58.8888,76.565636 59.258488,71.12337 54.375359,66.796842 49.019361,68.095452 40.134097,69.448066 35.614561,79.356303 36.028265,87.554181 35.940793,92.942008 37.855789,100.05368 44.1644,100.87108 47.26654,101.36355 50.557356,100.5672 52.906821,98.424951 Z"
     id="path4138"
     inkscape:connector-curvature="0" />
</svg>
