<?xml version="1.0" encoding="UTF-8" standalone="no"?>
<!-- Created with Inkscape (http://www.inkscape.org/) -->

<svg
   xmlns:dc="http://purl.org/dc/elements/1.1/"
   xmlns:cc="http://creativecommons.org/ns#"
   xmlns:rdf="http://www.w3.org/1999/02/22-rdf-syntax-ns#"
   xmlns:svg="http://www.w3.org/2000/svg"
   xmlns="http://www.w3.org/2000/svg"
   xmlns:sodipodi="http://sodipodi.sourceforge.net/DTD/sodipodi-0.dtd"
   xmlns:inkscape="http://www.inkscape.org/namespaces/inkscape"
   id="svg2"
   version="1.1"
   inkscape:version="0.91 r13725"
   width="111"
   height="129"
   viewBox="0 0 111 129"
   sodipodi:docname="a30-vectInk-simp5.svg">
  <metadata
     id="metadata8">
    <rdf:RDF>
      <cc:Work
         rdf:about="">
        <dc:format>image/svg+xml</dc:format>
        <dc:type
           rdf:resource="http://purl.org/dc/dcmitype/StillImage" />
        <dc:title></dc:title>
      </cc:Work>
    </rdf:RDF>
  </metadata>
  <defs
     id="defs6" />
  <sodipodi:namedview
     pagecolor="#ffffff"
     bordercolor="#666666"
     borderopacity="1"
     objecttolerance="10"
     gridtolerance="10"
     guidetolerance="10"
     inkscape:pageopacity="0"
     inkscape:pageshadow="2"
     inkscape:window-width="1366"
     inkscape:window-height="721"
     id="namedview4"
     showgrid="false"
     inkscape:zoom="1.8294574"
     inkscape:cx="-9.8199153"
     inkscape:cy="64.5"
     inkscape:window-x="0"
     inkscape:window-y="0"
     inkscape:window-maximized="1"
     inkscape:current-layer="svg2" />
  <path
     style="fill:#000000"
     d="M 80.754147,115.95903 C 73.091684,114.15028 66.244943,107.45151 57.921057,109.67154 51.556208,111.83297 45.283566,115.38025 38.331519,114.63744 24.509062,115.35321 10.748845,104.64951 9.3091114,90.628716 7.5805174,77.581835 17.448013,65.314376 29.669182,61.764067 38.135481,58.569757 48.131618,61.180643 55.842427,55.762884 61.584206,51.546023 61.426172,43.502483 60.712149,37.126679 60.312342,31.411341 58.271813,25.294527 52.965493,22.34252 48.079575,18.502902 42.512425,23.520372 42.535154,28.768435 41.892497,33.678006 43.055958,39.478367 38.977729,43.228948 34.715584,47.947291 27.104861,47.993015 22.288779,44.092777 16.501828,40.047339 13.933902,31.494532 18.059239,25.393929 23.610087,14.357787 36.498146,8.614185 48.496725,9.4194531 62.383181,9.1922509 76.506622,16.630737 82.817769,29.257954 87.623338,37.973552 87.683021,48.154272 87.320882,57.820222 87.328164,70.667237 86.58574,83.592405 87.973679,96.381074 89.662931,101.76995 96.883357,104.52101 96.005292,110.82783 94.210794,117.13379 85.943037,117.21597 80.754147,115.95903 Z M 52.906821,98.424951 C 59.275771,91.492576 60.008842,81.04546 58.074506,72.266612 54.817922,66.145319 45.383874,66.960456 41.556672,72.084076 34.981331,79.03724 33.798029,91.044251 39.653723,98.732061 43.307149,101.96632 49.366527,101.68705 52.906821,98.424951 Z"
     id="path4138"
     inkscape:connector-curvature="0" />
</svg>
