<?xml version="1.0" encoding="UTF-8" standalone="no"?>
<!-- Created with Inkscape (http://www.inkscape.org/) -->

<svg
   xmlns:dc="http://purl.org/dc/elements/1.1/"
   xmlns:cc="http://creativecommons.org/ns#"
   xmlns:rdf="http://www.w3.org/1999/02/22-rdf-syntax-ns#"
   xmlns:svg="http://www.w3.org/2000/svg"
   xmlns="http://www.w3.org/2000/svg"
   xmlns:sodipodi="http://sodipodi.sourceforge.net/DTD/sodipodi-0.dtd"
   xmlns:inkscape="http://www.inkscape.org/namespaces/inkscape"
   id="svg2"
   version="1.1"
   inkscape:version="0.91 r13725"
   width="111"
   height="129"
   viewBox="0 0 111 129"
   sodipodi:docname="a30-vectInk-simp27.svg">
  <metadata
     id="metadata8">
    <rdf:RDF>
      <cc:Work
         rdf:about="">
        <dc:format>image/svg+xml</dc:format>
        <dc:type
           rdf:resource="http://purl.org/dc/dcmitype/StillImage" />
        <dc:title></dc:title>
      </cc:Work>
    </rdf:RDF>
  </metadata>
  <defs
     id="defs6" />
  <sodipodi:namedview
     pagecolor="#ffffff"
     bordercolor="#666666"
     borderopacity="1"
     objecttolerance="10"
     gridtolerance="10"
     guidetolerance="10"
     inkscape:pageopacity="0"
     inkscape:pageshadow="2"
     inkscape:window-width="1366"
     inkscape:window-height="721"
     id="namedview4"
     showgrid="false"
     inkscape:zoom="1.8294574"
     inkscape:cx="-9.8199153"
     inkscape:cy="64.5"
     inkscape:window-x="0"
     inkscape:window-y="0"
     inkscape:window-maximized="1"
     inkscape:current-layer="svg2" />
  <path
     style="fill:#000000"
     d="M 80.754147,115.95903 C 73.203916,113.78618 66.184041,108.0231 57.921057,109.67154 45.833615,116.20664 29.390176,117.11168 18.416702,107.84868 7.0118014,98.463092 5.8652715,78.592856 17.543754,68.937147 25.732261,61.131667 37.568591,58.874379 48.525056,59.111783 57.370762,57.470528 62.948068,47.639909 61.072494,39.08577 60.783489,32.255278 58.023844,24.201022 51.1936,21.506396 45.378372,20.748363 40.257403,27.527209 42.479184,32.925846 43.801005,41.843024 33.322752,50.389923 25.026083,45.936599 16.301774,42.407661 12.937084,29.678474 19.597782,22.704097 28.827383,9.5273575 47.537589,6.0344071 62.074296,11.464863 75.709105,16.377708 86.610278,29.461949 87.009724,44.233802 88.916043,61.585856 84.800408,79.179611 88.329788,96.414538 90.514543,101.46743 96.805907,105.40144 95.105766,111.58317 93.138576,117.39649 85.650522,117.65572 80.754147,115.95903 Z M 52.906821,98.424951 C 58.980661,91.32253 60.311304,81.133273 58.074506,72.266612 54.166964,66.070432 43.54494,66.906512 40.400961,73.425573 34.738572,80.49807 34.280412,91.368978 39.653723,98.732061 43.31561,101.96652 49.358696,101.68854 52.906821,98.424951 Z"
     id="path4138"
     inkscape:connector-curvature="0" />
</svg>
