<?xml version="1.0" encoding="UTF-8" standalone="no"?>
<!-- Created with Inkscape (http://www.inkscape.org/) -->

<svg
   xmlns:dc="http://purl.org/dc/elements/1.1/"
   xmlns:cc="http://creativecommons.org/ns#"
   xmlns:rdf="http://www.w3.org/1999/02/22-rdf-syntax-ns#"
   xmlns:svg="http://www.w3.org/2000/svg"
   xmlns="http://www.w3.org/2000/svg"
   xmlns:sodipodi="http://sodipodi.sourceforge.net/DTD/sodipodi-0.dtd"
   xmlns:inkscape="http://www.inkscape.org/namespaces/inkscape"
   id="svg2"
   version="1.1"
   inkscape:version="0.91 r13725"
   width="111"
   height="129"
   viewBox="0 0 111 129"
   sodipodi:docname="a30-vectInk-simp24.svg">
  <metadata
     id="metadata8">
    <rdf:RDF>
      <cc:Work
         rdf:about="">
        <dc:format>image/svg+xml</dc:format>
        <dc:type
           rdf:resource="http://purl.org/dc/dcmitype/StillImage" />
        <dc:title></dc:title>
      </cc:Work>
    </rdf:RDF>
  </metadata>
  <defs
     id="defs6" />
  <sodipodi:namedview
     pagecolor="#ffffff"
     bordercolor="#666666"
     borderopacity="1"
     objecttolerance="10"
     gridtolerance="10"
     guidetolerance="10"
     inkscape:pageopacity="0"
     inkscape:pageshadow="2"
     inkscape:window-width="1366"
     inkscape:window-height="721"
     id="namedview4"
     showgrid="false"
     inkscape:zoom="1.8294574"
     inkscape:cx="-9.8199153"
     inkscape:cy="64.5"
     inkscape:window-x="0"
     inkscape:window-y="0"
     inkscape:window-maximized="1"
     inkscape:current-layer="svg2" />
  <path
     style="fill:#000000"
     d="M 80.754147,115.95903 C 73.190578,113.82896 66.191619,107.95765 57.921057,109.67154 46.370028,115.74098 31.036456,117.19191 20.061805,109.09948 8.0009504,100.70406 5.188785,81.036242 16.013325,70.514026 23.923225,61.748747 36.325674,58.787639 47.746328,59.243574 56.116653,58.067429 62.502769,49.463356 61.103203,41.104494 61.203084,33.77513 58.793814,25.068685 51.753724,21.606039 45.761141,20.254638 40.184746,27.357439 42.479184,32.925846 43.366059,40.783246 35.654547,49.053238 27.576109,46.696179 18.152653,44.908184 12.461065,32.337108 18.484284,24.464924 25.612557,12.030569 41.492154,7.247436 55.035426,9.6112054 70.833029,12.236593 85.310166,25.289052 86.688805,41.718257 89.336075,59.867215 84.623816,78.375814 88.329788,96.414538 90.458375,101.6384 97.551769,105.83081 94.882684,112.24197 92.42512,117.48477 85.495475,117.54841 80.754147,115.95903 Z M 52.906821,98.424951 C 59.010824,91.334701 60.280236,81.132396 58.074506,72.266612 54.181023,66.039641 43.557253,66.929126 40.400961,73.425573 34.749759,80.50124 34.268638,91.3717 39.653723,98.732061 43.315588,101.96659 49.358674,101.68847 52.906821,98.424951 Z"
     id="path4138"
     inkscape:connector-curvature="0" />
</svg>
