<?xml version="1.0" encoding="UTF-8" standalone="no"?>
<!-- Created with Inkscape (http://www.inkscape.org/) -->

<svg
   xmlns:dc="http://purl.org/dc/elements/1.1/"
   xmlns:cc="http://creativecommons.org/ns#"
   xmlns:rdf="http://www.w3.org/1999/02/22-rdf-syntax-ns#"
   xmlns:svg="http://www.w3.org/2000/svg"
   xmlns="http://www.w3.org/2000/svg"
   xmlns:sodipodi="http://sodipodi.sourceforge.net/DTD/sodipodi-0.dtd"
   xmlns:inkscape="http://www.inkscape.org/namespaces/inkscape"
   id="svg2"
   version="1.1"
   inkscape:version="0.91 r13725"
   width="111"
   height="129"
   viewBox="0 0 111 129"
   sodipodi:docname="a30-vectInk-simp9.svg">
  <metadata
     id="metadata8">
    <rdf:RDF>
      <cc:Work
         rdf:about="">
        <dc:format>image/svg+xml</dc:format>
        <dc:type
           rdf:resource="http://purl.org/dc/dcmitype/StillImage" />
        <dc:title></dc:title>
      </cc:Work>
    </rdf:RDF>
  </metadata>
  <defs
     id="defs6" />
  <sodipodi:namedview
     pagecolor="#ffffff"
     bordercolor="#666666"
     borderopacity="1"
     objecttolerance="10"
     gridtolerance="10"
     guidetolerance="10"
     inkscape:pageopacity="0"
     inkscape:pageshadow="2"
     inkscape:window-width="1366"
     inkscape:window-height="721"
     id="namedview4"
     showgrid="false"
     inkscape:zoom="1.8294574"
     inkscape:cx="-9.8199153"
     inkscape:cy="64.5"
     inkscape:window-x="0"
     inkscape:window-y="0"
     inkscape:window-maximized="1"
     inkscape:current-layer="svg2" />
  <path
     style="fill:#000000"
     d="M 80.754147,115.95903 C 73.114924,114.07414 66.232926,107.57368 57.921057,109.67154 49.30346,113.36299 39.695158,116.55184 30.311734,113.87583 17.042677,110.62808 6.3868356,96.526257 9.6427622,82.724977 12.572058,69.175164 26.266728,59.955975 39.74695,59.894519 46.591434,59.382423 54.998714,58.754033 58.913126,52.204691 62.523003,45.208084 61.080362,36.87718 59.151428,29.614221 57.256905,25.037302 52.478036,19.776822 47.03161,21.636511 41.935155,23.856297 42.356422,30.297432 42.18827,34.977965 42.527502,41.619004 36.507575,47.227619 29.994624,46.925171 20.192877,46.839429 12.77251,34.950233 17.501985,26.202656 23.201606,14.416591 36.897069,8.4343133 49.54986,9.2579903 66.149138,9.4725192 82.714739,21.22896 86.039926,37.919841 88.938217,51.211837 86.529882,64.849912 87.129425,78.298955 87.139859,84.334188 87.322055,90.377671 87.973679,96.381074 89.716814,101.65977 96.655907,104.49037 95.869847,110.67844 94.340869,117.25851 85.962343,117.16072 80.754147,115.95903 Z M 52.906821,98.424951 C 59.211193,91.416454 60.076551,81.125955 58.074506,72.266612 54.546832,65.995707 44.494169,67.002464 40.956081,72.750455 34.887156,79.826293 33.997235,91.154751 39.653723,98.732061 43.315418,101.96697 49.358635,101.68808 52.906821,98.424951 Z"
     id="path4138"
     inkscape:connector-curvature="0" />
</svg>
