<?xml version="1.0" encoding="UTF-8" standalone="no"?>
<!-- Created with Inkscape (http://www.inkscape.org/) -->

<svg
   xmlns:dc="http://purl.org/dc/elements/1.1/"
   xmlns:cc="http://creativecommons.org/ns#"
   xmlns:rdf="http://www.w3.org/1999/02/22-rdf-syntax-ns#"
   xmlns:svg="http://www.w3.org/2000/svg"
   xmlns="http://www.w3.org/2000/svg"
   xmlns:sodipodi="http://sodipodi.sourceforge.net/DTD/sodipodi-0.dtd"
   xmlns:inkscape="http://www.inkscape.org/namespaces/inkscape"
   id="svg2"
   version="1.1"
   inkscape:version="0.91 r13725"
   width="111"
   height="129"
   viewBox="0 0 111 129"
   sodipodi:docname="a30-vectInk-simp25.svg">
  <metadata
     id="metadata8">
    <rdf:RDF>
      <cc:Work
         rdf:about="">
        <dc:format>image/svg+xml</dc:format>
        <dc:type
           rdf:resource="http://purl.org/dc/dcmitype/StillImage" />
        <dc:title></dc:title>
      </cc:Work>
    </rdf:RDF>
  </metadata>
  <defs
     id="defs6" />
  <sodipodi:namedview
     pagecolor="#ffffff"
     bordercolor="#666666"
     borderopacity="1"
     objecttolerance="10"
     gridtolerance="10"
     guidetolerance="10"
     inkscape:pageopacity="0"
     inkscape:pageshadow="2"
     inkscape:window-width="1366"
     inkscape:window-height="721"
     id="namedview4"
     showgrid="false"
     inkscape:zoom="1.8294574"
     inkscape:cx="-9.8199153"
     inkscape:cy="64.5"
     inkscape:window-x="0"
     inkscape:window-y="0"
     inkscape:window-maximized="1"
     inkscape:current-layer="svg2" />
  <path
     style="fill:#000000"
     d="M 80.754147,115.95903 C 73.195082,113.8145 66.189069,107.97983 57.921057,109.67154 46.186031,115.89529 30.499055,117.17101 19.503243,108.69777 7.5311673,99.889343 5.3908806,79.890833 16.767873,69.709213 24.928939,61.256515 37.231291,58.89482 48.525056,59.111783 56.818199,57.513237 62.630362,48.665994 61.105151,40.413534 61.064503,33.262051 58.600638,25.026633 51.753724,21.606039 45.760717,20.271504 40.177104,27.352293 42.479184,32.925846 43.51287,41.132581 34.905968,49.526634 26.703837,46.497436 17.494741,44.103034 12.576717,31.458409 18.824789,23.887666 26.60398,11.219451 43.338027,6.7967771 57.247047,10.048408 72.44086,13.450025 85.797836,26.616758 86.807566,42.56925 89.190373,60.45378 84.683027,78.629121 88.329788,96.414538 90.37921,101.41501 96.51834,105.01921 95.272329,111.06508 93.676486,117.30772 85.784965,117.73369 80.754147,115.95903 Z M 52.906821,98.424951 C 59.000462,91.330516 60.290897,81.1327 58.074506,72.266612 54.175891,66.050919 43.552613,66.920658 40.400961,73.425573 34.745834,80.500128 34.272765,91.370746 39.653723,98.732061 43.315596,101.96657 49.358682,101.68849 52.906821,98.424951 Z"
     id="path4138"
     inkscape:connector-curvature="0" />
</svg>
