<?xml version="1.0" encoding="UTF-8" standalone="no"?>
<!-- Created with Inkscape (http://www.inkscape.org/) -->

<svg
   xmlns:dc="http://purl.org/dc/elements/1.1/"
   xmlns:cc="http://creativecommons.org/ns#"
   xmlns:rdf="http://www.w3.org/1999/02/22-rdf-syntax-ns#"
   xmlns:svg="http://www.w3.org/2000/svg"
   xmlns="http://www.w3.org/2000/svg"
   xmlns:sodipodi="http://sodipodi.sourceforge.net/DTD/sodipodi-0.dtd"
   xmlns:inkscape="http://www.inkscape.org/namespaces/inkscape"
   id="svg2"
   version="1.1"
   inkscape:version="0.91 r13725"
   width="111"
   height="129"
   viewBox="0 0 111 129"
   sodipodi:docname="a30-vectInk-simp18.svg">
  <metadata
     id="metadata8">
    <rdf:RDF>
      <cc:Work
         rdf:about="">
        <dc:format>image/svg+xml</dc:format>
        <dc:type
           rdf:resource="http://purl.org/dc/dcmitype/StillImage" />
        <dc:title></dc:title>
      </cc:Work>
    </rdf:RDF>
  </metadata>
  <defs
     id="defs6" />
  <sodipodi:namedview
     pagecolor="#ffffff"
     bordercolor="#666666"
     borderopacity="1"
     objecttolerance="10"
     gridtolerance="10"
     guidetolerance="10"
     inkscape:pageopacity="0"
     inkscape:pageshadow="2"
     inkscape:window-width="1366"
     inkscape:window-height="721"
     id="namedview4"
     showgrid="false"
     inkscape:zoom="1.8294574"
     inkscape:cx="-9.8199153"
     inkscape:cy="64.5"
     inkscape:window-x="0"
     inkscape:window-y="0"
     inkscape:window-maximized="1"
     inkscape:current-layer="svg2" />
  <path
     style="fill:#000000"
     d="M 80.754147,115.95903 C 73.162248,113.92028 66.207444,107.81637 57.921057,109.67154 47.043619,115.07806 33.10685,117.29576 22.301399,110.53007 10.201857,103.59093 4.8237017,85.880287 13.220443,74.15394 20.048587,63.54905 33.330807,58.776288 45.545347,59.469767 52.907108,58.983319 60.819771,53.561449 60.794011,45.559213 61.841434,37.329817 60.2959,27.655835 53.429421,22.249721 47.683215,19.098551 40.520949,25.59088 42.377587,31.678481 42.947271,37.894572 39.884337,45.575131 33.018435,46.610046 23.512979,48.784758 13.562436,38.876415 16.523692,29.333299 19.24087,18.230015 30.528152,11.657671 41.092631,9.6515398 59.343752,6.3188544 80.244915,17.020708 85.421916,35.427133 89.105968,48.609237 86.737377,62.386499 87.076856,75.845035 87.020329,83.318805 86.338661,91.200938 89.096678,98.284232 91.457194,102.43967 96.831949,105.94574 95.423558,111.33465 93.139191,117.55787 86.0903,117.3735 80.754147,115.95903 Z M 52.906821,98.424951 C 59.080103,91.36279 60.209283,81.130289 58.074506,72.266612 54.22512,65.942008 43.600693,67.007159 40.400961,73.425573 34.778131,80.509276 34.238899,91.378581 39.653723,98.732061 43.315547,101.96674 49.358633,101.68832 52.906821,98.424951 Z"
     id="path4138"
     inkscape:connector-curvature="0" />
</svg>
