<?xml version="1.0" encoding="UTF-8" standalone="no"?>
<!-- Created with Inkscape (http://www.inkscape.org/) -->

<svg
   xmlns:dc="http://purl.org/dc/elements/1.1/"
   xmlns:cc="http://creativecommons.org/ns#"
   xmlns:rdf="http://www.w3.org/1999/02/22-rdf-syntax-ns#"
   xmlns:svg="http://www.w3.org/2000/svg"
   xmlns="http://www.w3.org/2000/svg"
   xmlns:sodipodi="http://sodipodi.sourceforge.net/DTD/sodipodi-0.dtd"
   xmlns:inkscape="http://www.inkscape.org/namespaces/inkscape"
   id="svg2"
   version="1.1"
   inkscape:version="0.91 r13725"
   width="111"
   height="129"
   viewBox="0 0 111 129"
   sodipodi:docname="a30-vectInk-simp13.svg">
  <metadata
     id="metadata8">
    <rdf:RDF>
      <cc:Work
         rdf:about="">
        <dc:format>image/svg+xml</dc:format>
        <dc:type
           rdf:resource="http://purl.org/dc/dcmitype/StillImage" />
        <dc:title></dc:title>
      </cc:Work>
    </rdf:RDF>
  </metadata>
  <defs
     id="defs6" />
  <sodipodi:namedview
     pagecolor="#ffffff"
     bordercolor="#666666"
     borderopacity="1"
     objecttolerance="10"
     gridtolerance="10"
     guidetolerance="10"
     inkscape:pageopacity="0"
     inkscape:pageshadow="2"
     inkscape:window-width="1366"
     inkscape:window-height="721"
     id="namedview4"
     showgrid="false"
     inkscape:zoom="1.8294574"
     inkscape:cx="-9.8199153"
     inkscape:cy="64.5"
     inkscape:window-x="0"
     inkscape:window-y="0"
     inkscape:window-maximized="1"
     inkscape:current-layer="svg2" />
  <path
     style="fill:#000000"
     d="M 80.754147,115.95903 C 73.136741,114.003 66.221337,107.6866 57.921057,109.67154 47.510021,114.60348 34.528052,117.33283 23.92703,111.4286 12.304364,105.48002 5.3013478,90.141482 11.20441,77.913209 16.499889,65.825135 30.132037,59.099305 42.95842,59.665624 49.71399,59.268439 58.068602,56.787777 60.019532,49.418915 62.313909,41.515423 60.960244,32.720995 57.018352,25.577943 53.923772,20.481373 44.512888,19.586924 43.047759,26.406221 41.318827,31.924652 43.758843,38.91156 38.976545,43.277951 32.913401,49.855776 21.026187,46.787801 17.670777,38.862986 14.135127,32.20029 17.053287,23.943681 22.433705,19.198404 36.239837,5.2747628 60.780455,6.2274607 74.909781,19.181016 82.642752,25.982786 87.22644,36.089283 87.189027,46.394548 88.099316,60.373627 86.334632,74.387832 87.280542,88.359847 86.690299,94.705561 89.737123,100.90026 94.411053,105.05956 98.498525,110.06335 93.125957,117.54989 87.114884,116.58781 84.97701,116.67426 82.847415,116.36316 80.754147,115.95903 Z M 52.906821,98.424951 C 59.148416,91.390671 60.139866,81.128086 58.074506,72.266612 54.271946,65.79653 43.684557,67.124543 40.400961,73.425573 34.809542,80.518194 34.206052,91.386162 39.653723,98.732061 43.31551,101.96687 49.358601,101.68819 52.906821,98.424951 Z"
     id="path4138"
     inkscape:connector-curvature="0" />
</svg>
