<?xml version="1.0" encoding="UTF-8" standalone="no"?>
<!-- Created with Inkscape (http://www.inkscape.org/) -->

<svg
   xmlns:dc="http://purl.org/dc/elements/1.1/"
   xmlns:cc="http://creativecommons.org/ns#"
   xmlns:rdf="http://www.w3.org/1999/02/22-rdf-syntax-ns#"
   xmlns:svg="http://www.w3.org/2000/svg"
   xmlns="http://www.w3.org/2000/svg"
   xmlns:sodipodi="http://sodipodi.sourceforge.net/DTD/sodipodi-0.dtd"
   xmlns:inkscape="http://www.inkscape.org/namespaces/inkscape"
   id="svg2"
   version="1.1"
   inkscape:version="0.91 r13725"
   width="111"
   height="129"
   viewBox="0 0 111 129"
   sodipodi:docname="a30-vectInk-simp3.svg">
  <metadata
     id="metadata8">
    <rdf:RDF>
      <cc:Work
         rdf:about="">
        <dc:format>image/svg+xml</dc:format>
        <dc:type
           rdf:resource="http://purl.org/dc/dcmitype/StillImage" />
        <dc:title></dc:title>
      </cc:Work>
    </rdf:RDF>
  </metadata>
  <defs
     id="defs6" />
  <sodipodi:namedview
     pagecolor="#ffffff"
     bordercolor="#666666"
     borderopacity="1"
     objecttolerance="10"
     gridtolerance="10"
     guidetolerance="10"
     inkscape:pageopacity="0"
     inkscape:pageshadow="2"
     inkscape:window-width="1366"
     inkscape:window-height="721"
     id="namedview4"
     showgrid="false"
     inkscape:zoom="1.8294574"
     inkscape:cx="-9.8199153"
     inkscape:cy="64.5"
     inkscape:window-x="0"
     inkscape:window-y="0"
     inkscape:window-maximized="1"
     inkscape:current-layer="svg2" />
  <path
     style="fill:#000000"
     d="M 80.754147,115.95903 C 73.079418,114.19043 66.251299,107.3866 57.921057,109.67154 51.9969,111.45995 46.403036,115.17028 39.969787,114.53402 29.035231,115.48051 17.59189,109.9925 12.431136,100.13021 7.7346352,91.768917 8.0149551,80.724149 13.986149,73.044064 20.021429,64.385541 30.628301,60.008988 40.959322,59.842343 47.469291,59.210452 55.495578,58.430788 59.109927,52.141748 62.186459,45.935717 60.925707,38.731105 60.034074,32.165538 58.594154,26.670999 54.172163,21.053019 48.053287,20.985892 42.429065,22.398746 42.393816,29.088711 42.203518,33.779979 42.614045,39.209187 39.403356,44.815694 34.031553,46.378188 23.719744,49.613549 12.313786,37.495123 17.115632,27.494133 21.66556,16.03024 34.065674,9.1623554 46.133421,9.4928137 58.25939,8.849787 70.996408,13.248442 78.612719,23.04191 85.29976,30.972489 88.010858,41.595438 87.302791,51.823399 87.475596,66.492055 86.55503,81.210357 87.828934,95.842083 89.17579,101.44724 96.374573,104.116 96.184269,110.26555 94.980144,116.92949 85.967709,117.34135 80.754147,115.95903 Z M 52.906821,98.424951 C 59.203667,91.878105 59.541428,81.946937 58.550584,73.446254 56.527224,66.842428 47.295003,66.444464 42.878771,70.847458 35.426063,77.069864 34.07575,88.795694 38.323465,97.204183 41.490793,101.94667 48.891678,102.15854 52.906821,98.424951 Z"
     id="path4138"
     inkscape:connector-curvature="0" />
</svg>
