<?xml version="1.0" encoding="UTF-8" standalone="no"?>
<!-- Created with Inkscape (http://www.inkscape.org/) -->

<svg
   xmlns:dc="http://purl.org/dc/elements/1.1/"
   xmlns:cc="http://creativecommons.org/ns#"
   xmlns:rdf="http://www.w3.org/1999/02/22-rdf-syntax-ns#"
   xmlns:svg="http://www.w3.org/2000/svg"
   xmlns="http://www.w3.org/2000/svg"
   xmlns:sodipodi="http://sodipodi.sourceforge.net/DTD/sodipodi-0.dtd"
   xmlns:inkscape="http://www.inkscape.org/namespaces/inkscape"
   id="svg2"
   version="1.1"
   inkscape:version="0.91 r13725"
   width="111"
   height="129"
   viewBox="0 0 111 129"
   sodipodi:docname="a30-vectInk-simp14.svg">
  <metadata
     id="metadata8">
    <rdf:RDF>
      <cc:Work
         rdf:about="">
        <dc:format>image/svg+xml</dc:format>
        <dc:type
           rdf:resource="http://purl.org/dc/dcmitype/StillImage" />
        <dc:title></dc:title>
      </cc:Work>
    </rdf:RDF>
  </metadata>
  <defs
     id="defs6" />
  <sodipodi:namedview
     pagecolor="#ffffff"
     bordercolor="#666666"
     borderopacity="1"
     objecttolerance="10"
     gridtolerance="10"
     guidetolerance="10"
     inkscape:pageopacity="0"
     inkscape:pageshadow="2"
     inkscape:window-width="1366"
     inkscape:window-height="721"
     id="namedview4"
     showgrid="false"
     inkscape:zoom="1.8294574"
     inkscape:cx="-9.8199153"
     inkscape:cy="64.5"
     inkscape:window-x="0"
     inkscape:window-y="0"
     inkscape:window-maximized="1"
     inkscape:current-layer="svg2" />
  <path
     style="fill:#000000"
     d="M 80.754147,115.95903 C 73.141993,113.98593 66.218506,107.71352 57.921057,109.67154 47.171479,114.84543 33.595004,117.39209 22.851192,110.84379 11.475857,104.40399 5.1966692,88.726562 11.725006,76.795721 17.486718,65.153999 30.976524,58.998675 43.596195,59.622198 50.412798,59.218843 58.715582,56.195531 60.223975,48.67543 62.238925,40.479591 60.882716,31.188333 55.99321,24.258224 52.629189,20.541373 44.861222,20.278503 43.207958,25.789404 41.209163,31.477497 43.866688,38.706622 38.976545,43.277951 32.533228,50.246939 19.791295,46.312046 17.082499,37.596298 14.106183,30.120011 18.423342,21.885728 24.443774,17.338158 40.694081,3.6097038 67.852561,7.7005048 80.096022,24.853449 85.503192,31.922588 87.488043,40.9138 87.355964,49.671501 87.752329,62.963018 86.524851,76.265734 87.212003,89.547439 87.013774,95.731802 90.360904,101.4404 94.766808,105.53561 98.562695,111.36024 91.598444,118.26495 85.513469,116.58286 83.912426,116.51266 82.325647,116.26233 80.754147,115.95903 Z M 52.906821,98.424951 C 59.133899,91.38473 60.154572,81.128565 58.074506,72.266612 54.269225,65.833119 43.655891,67.097098 40.400961,73.425573 34.802596,80.516199 34.213318,91.384508 39.653723,98.732061 43.315518,101.96684 49.358607,101.68822 52.906821,98.424951 Z"
     id="path4138"
     inkscape:connector-curvature="0" />
</svg>
