<?xml version="1.0" encoding="UTF-8" standalone="no"?>
<!-- Created with Inkscape (http://www.inkscape.org/) -->

<svg
   xmlns:dc="http://purl.org/dc/elements/1.1/"
   xmlns:cc="http://creativecommons.org/ns#"
   xmlns:rdf="http://www.w3.org/1999/02/22-rdf-syntax-ns#"
   xmlns:svg="http://www.w3.org/2000/svg"
   xmlns="http://www.w3.org/2000/svg"
   xmlns:sodipodi="http://sodipodi.sourceforge.net/DTD/sodipodi-0.dtd"
   xmlns:inkscape="http://www.inkscape.org/namespaces/inkscape"
   id="svg2"
   version="1.1"
   inkscape:version="0.91 r13725"
   width="111"
   height="129"
   viewBox="0 0 111 129"
   sodipodi:docname="a30-vectInk-simp11.svg">
  <metadata
     id="metadata8">
    <rdf:RDF>
      <cc:Work
         rdf:about="">
        <dc:format>image/svg+xml</dc:format>
        <dc:type
           rdf:resource="http://purl.org/dc/dcmitype/StillImage" />
        <dc:title></dc:title>
      </cc:Work>
    </rdf:RDF>
  </metadata>
  <defs
     id="defs6" />
  <sodipodi:namedview
     pagecolor="#ffffff"
     bordercolor="#666666"
     borderopacity="1"
     objecttolerance="10"
     gridtolerance="10"
     guidetolerance="10"
     inkscape:pageopacity="0"
     inkscape:pageshadow="2"
     inkscape:window-width="1366"
     inkscape:window-height="721"
     id="namedview4"
     showgrid="false"
     inkscape:zoom="1.8294574"
     inkscape:cx="-9.8199153"
     inkscape:cy="64.5"
     inkscape:window-x="0"
     inkscape:window-y="0"
     inkscape:window-maximized="1"
     inkscape:current-layer="svg2" />
  <path
     style="fill:#000000"
     d="M 80.754147,115.95903 C 73.125999,114.03798 66.227078,107.63122 57.921057,109.67154 47.46685,114.52832 34.557568,117.43901 23.938688,111.41582 12.934688,105.64994 5.8202737,91.702649 10.516503,79.651459 15.003481,67.009632 28.63546,59.382907 41.695148,59.752618 48.366329,59.31936 56.64714,57.786988 59.5261,50.865725 62.459022,43.245854 61.065168,34.572046 58.047539,27.214476 55.725888,23.088156 49.922109,19.289386 45.471429,22.580524 39.588005,27.824362 44.85858,37.160129 39.473195,42.692953 34.354148,49.17985 23.39125,47.737468 19.092914,41.040455 14.833216,35.69276 15.262273,27.626792 19.67908,22.501521 28.081331,10.631047 44.372395,6.9455628 57.97503,10.317057 72.856673,13.794808 85.675149,26.753478 86.803049,42.340225 88.56884,56.72298 86.220853,71.203815 87.27266,85.624383 87.514396,91.193041 86.895965,97.708663 91.582723,101.71478 95.110667,104.90661 98.191146,111.18431 93.298256,114.64508 89.693713,117.26287 84.871595,116.76013 80.754147,115.95903 Z M 52.906821,98.424951 C 59.178832,91.403143 60.109133,81.127067 58.074506,72.266612 54.512929,66.067939 44.462117,66.938352 40.956081,72.750455 34.871004,79.821225 34.014349,91.150933 39.653723,98.732061 43.315491,101.96692 49.358591,101.68814 52.906821,98.424951 Z"
     id="path4138"
     inkscape:connector-curvature="0" />
</svg>
