<?xml version="1.0" encoding="UTF-8" standalone="no"?>
<!-- Created with Inkscape (http://www.inkscape.org/) -->

<svg
   xmlns:dc="http://purl.org/dc/elements/1.1/"
   xmlns:cc="http://creativecommons.org/ns#"
   xmlns:rdf="http://www.w3.org/1999/02/22-rdf-syntax-ns#"
   xmlns:svg="http://www.w3.org/2000/svg"
   xmlns="http://www.w3.org/2000/svg"
   xmlns:sodipodi="http://sodipodi.sourceforge.net/DTD/sodipodi-0.dtd"
   xmlns:inkscape="http://www.inkscape.org/namespaces/inkscape"
   id="svg2"
   version="1.1"
   inkscape:version="0.91 r13725"
   width="111"
   height="129"
   viewBox="0 0 111 129"
   sodipodi:docname="a30-vectInk-simp0.svg">
  <metadata
     id="metadata8">
    <rdf:RDF>
      <cc:Work
         rdf:about="">
        <dc:format>image/svg+xml</dc:format>
        <dc:type
           rdf:resource="http://purl.org/dc/dcmitype/StillImage" />
        <dc:title></dc:title>
      </cc:Work>
    </rdf:RDF>
  </metadata>
  <defs
     id="defs6" />
  <sodipodi:namedview
     pagecolor="#ffffff"
     bordercolor="#666666"
     borderopacity="1"
     objecttolerance="10"
     gridtolerance="10"
     guidetolerance="10"
     inkscape:pageopacity="0"
     inkscape:pageshadow="2"
     inkscape:window-width="1366"
     inkscape:window-height="721"
     id="namedview4"
     showgrid="false"
     inkscape:zoom="1.8294574"
     inkscape:cx="-9.8199153"
     inkscape:cy="64.5"
     inkscape:window-x="0"
     inkscape:window-y="0"
     inkscape:window-maximized="1"
     inkscape:current-layer="svg2" />
  <path
     style="fill:#000000"
     d="M 80.754147,115.95903 C 78.693928,115.4497 74.31926,113.67556 71.032664,112.01649 63.642383,108.28589 59.881676,108.23202 52.370843,111.7492 47.501458,114.02944 45.135347,114.49854 38.5,114.4992 31.753966,114.49988 29.602748,114.0594 24.775753,111.68905 7.3181051,103.1163 3.7891224,81.421812 17.79802,68.793312 24.497729,62.753774 29.19309,60.891449 40.111634,59.943048 56.511312,58.518548 61.004514,54.732253 60.994423,42.345708 60.991356,38.580569 60.494972,33.721116 59.891347,31.546924 58.426968,26.272384 53.109875,21 49.254988,21 44.526643,21 42.694573,23.959787 42.316044,32.210159 41.947743,40.237608 40.532323,43.156245 35.827835,45.58903 27.31357,49.991927 15.94247,42.352061 16.021962,32.282119 16.082305,24.637894 24.824768,14.620112 34.329479,11.303968 41.608199,8.7644602 55.66995,8.9808968 62.719203,11.740939 74.083965,16.190661 81.619045,24.167845 85.633801,36 87.300849,40.913068 87.469652,44.28467 87.215617,67.594467 87.046264,83.134023 87.33158,94.741921 87.920991,96.29219 88.465357,97.723981 90.446122,100.60647 92.322691,102.69772 97.063887,107.98132 97.582081,110.22911 94.786296,113.3842 92.14472,116.36526 86.549942,117.39188 80.754147,115.95903 Z M 52.906821,98.424951 C 56.671776,95.25695 59,88.007841 59,79.453357 59,71.109553 56.693401,68 50.504145,68 42.478249,68 36.066064,76.272995 36.021962,86.6849 35.982089,96.098357 39.372404,101 45.923275,101 48.679637,101 50.756776,100.2341 52.906821,98.424951 Z"
     id="path4138"
     inkscape:connector-curvature="0" />
</svg>
