<?xml version="1.0" encoding="UTF-8" standalone="no"?>
<!-- Created with Inkscape (http://www.inkscape.org/) -->

<svg
   xmlns:dc="http://purl.org/dc/elements/1.1/"
   xmlns:cc="http://creativecommons.org/ns#"
   xmlns:rdf="http://www.w3.org/1999/02/22-rdf-syntax-ns#"
   xmlns:svg="http://www.w3.org/2000/svg"
   xmlns="http://www.w3.org/2000/svg"
   xmlns:sodipodi="http://sodipodi.sourceforge.net/DTD/sodipodi-0.dtd"
   xmlns:inkscape="http://www.inkscape.org/namespaces/inkscape"
   id="svg2"
   version="1.1"
   inkscape:version="0.91 r13725"
   width="111"
   height="129"
   viewBox="0 0 111 129"
   sodipodi:docname="a30-vectInk-simp8.svg">
  <metadata
     id="metadata8">
    <rdf:RDF>
      <cc:Work
         rdf:about="">
        <dc:format>image/svg+xml</dc:format>
        <dc:type
           rdf:resource="http://purl.org/dc/dcmitype/StillImage" />
        <dc:title></dc:title>
      </cc:Work>
    </rdf:RDF>
  </metadata>
  <defs
     id="defs6" />
  <sodipodi:namedview
     pagecolor="#ffffff"
     bordercolor="#666666"
     borderopacity="1"
     objecttolerance="10"
     gridtolerance="10"
     guidetolerance="10"
     inkscape:pageopacity="0"
     inkscape:pageshadow="2"
     inkscape:window-width="1366"
     inkscape:window-height="721"
     id="namedview4"
     showgrid="false"
     inkscape:zoom="1.8294574"
     inkscape:cx="-9.8199153"
     inkscape:cy="64.5"
     inkscape:window-x="0"
     inkscape:window-y="0"
     inkscape:window-maximized="1"
     inkscape:current-layer="svg2" />
  <path
     style="fill:#000000"
     d="M 80.754147,115.95903 C 73.109255,114.09268 66.23589,107.54405 57.921057,109.67154 50.244484,112.78076 42.06834,116.024 33.626485,114.4839 19.315414,112.84568 6.8102929,98.653035 9.404416,83.995996 11.602058,70.316552 24.945531,60.480597 38.406865,60.008178 45.464758,59.379541 54.06809,59.251976 58.561781,52.81924 62.473499,46.31033 61.080823,38.29458 59.692593,31.258221 58.268317,25.538854 51.308499,18.043205 45.329533,22.61574 40.698122,27.035429 43.293263,33.836673 41.463649,39.22463 39.153829,46.391686 29.717033,49.10028 23.618857,45.012976 16.954348,41.39606 13.823125,32.224535 17.859508,25.571832 23.472567,14.588119 36.135434,8.8549102 48.134632,9.2551354 63.230216,9.0000751 78.430265,17.922548 84.260315,32.072522 89.558028,45.777878 86.634033,60.669602 87.139351,74.945725 87.088592,82.097336 87.201327,89.264913 87.973679,96.381074 89.741544,101.84619 97.896671,105.30569 95.548532,111.87499 92.988369,117.34121 85.711957,117.03834 80.754147,115.95903 Z M 52.906821,98.424951 C 59.228138,91.42346 60.059535,81.125348 58.074506,72.266612 54.564773,65.95317 44.514549,67.039731 40.956081,72.750455 34.895937,79.828905 33.987959,91.156969 39.653723,98.732061 43.315262,101.96699 49.358781,101.68803 52.906821,98.424951 Z"
     id="path4138"
     inkscape:connector-curvature="0" />
</svg>
