<?xml version="1.0" encoding="UTF-8" standalone="no"?>
<!-- Created with Inkscape (http://www.inkscape.org/) -->

<svg
   xmlns:dc="http://purl.org/dc/elements/1.1/"
   xmlns:cc="http://creativecommons.org/ns#"
   xmlns:rdf="http://www.w3.org/1999/02/22-rdf-syntax-ns#"
   xmlns:svg="http://www.w3.org/2000/svg"
   xmlns="http://www.w3.org/2000/svg"
   xmlns:sodipodi="http://sodipodi.sourceforge.net/DTD/sodipodi-0.dtd"
   xmlns:inkscape="http://www.inkscape.org/namespaces/inkscape"
   id="svg2"
   version="1.1"
   inkscape:version="0.91 r13725"
   width="111"
   height="129"
   viewBox="0 0 111 129"
   sodipodi:docname="a30-vectInk-simp29.svg">
  <metadata
     id="metadata8">
    <rdf:RDF>
      <cc:Work
         rdf:about="">
        <dc:format>image/svg+xml</dc:format>
        <dc:type
           rdf:resource="http://purl.org/dc/dcmitype/StillImage" />
        <dc:title></dc:title>
      </cc:Work>
    </rdf:RDF>
  </metadata>
  <defs
     id="defs6" />
  <sodipodi:namedview
     pagecolor="#ffffff"
     bordercolor="#666666"
     borderopacity="1"
     objecttolerance="10"
     gridtolerance="10"
     guidetolerance="10"
     inkscape:pageopacity="0"
     inkscape:pageshadow="2"
     inkscape:window-width="1366"
     inkscape:window-height="721"
     id="namedview4"
     showgrid="false"
     inkscape:zoom="1.8294574"
     inkscape:cx="-9.8199153"
     inkscape:cy="64.5"
     inkscape:window-x="0"
     inkscape:window-y="0"
     inkscape:window-maximized="1"
     inkscape:current-layer="svg2" />
  <path
     style="fill:#000000"
     d="M 80.754147,115.95903 C 73.212527,113.75863 66.179109,108.06499 57.921057,109.67154 45.664399,116.39811 28.83945,117.03707 17.888433,107.40305 6.6037744,97.645078 6.1924885,77.495112 18.322723,68.222656 26.519397,60.998642 37.895901,58.864357 48.525056,59.111783 57.883633,57.390925 63.238709,46.650869 60.992293,37.815031 60.480787,31.34379 57.618654,24.109157 51.1936,21.506396 45.244742,20.681579 41.349785,27.143559 41.974061,32.447281 43.51189,36.989335 40.971366,41.822009 37.249149,44.515166 32.857919,48.088243 26.274871,47.892306 22.003259,44.219296 15.02944,38.99704 13.956627,27.460676 20.521313,21.463479 31.614279,7.5361394 53.157335,5.5140576 68.062711,14.228239 79.276868,20.552829 87.191024,32.830924 87.170024,45.848562 88.665537,62.67698 84.914305,79.714497 88.329788,96.414538 90.572781,101.41815 96.658411,105.38744 95.094007,111.5291 93.206748,117.40146 85.647863,117.66006 80.754147,115.95903 Z M 52.906821,98.424951 C 58.962028,91.315029 60.33055,81.133801 58.074506,72.266612 54.159517,66.086557 43.53907,66.895478 40.400961,73.425573 34.732031,80.496217 34.287317,91.367381 39.653723,98.732061 43.315623,101.96647 49.35871,101.68859 52.906821,98.424951 Z"
     id="path4138"
     inkscape:connector-curvature="0" />
</svg>
