<?xml version="1.0" encoding="UTF-8" standalone="no"?>
<!-- Created with Inkscape (http://www.inkscape.org/) -->

<svg
   xmlns:dc="http://purl.org/dc/elements/1.1/"
   xmlns:cc="http://creativecommons.org/ns#"
   xmlns:rdf="http://www.w3.org/1999/02/22-rdf-syntax-ns#"
   xmlns:svg="http://www.w3.org/2000/svg"
   xmlns="http://www.w3.org/2000/svg"
   xmlns:sodipodi="http://sodipodi.sourceforge.net/DTD/sodipodi-0.dtd"
   xmlns:inkscape="http://www.inkscape.org/namespaces/inkscape"
   id="svg2"
   version="1.1"
   inkscape:version="0.91 r13725"
   width="111"
   height="129"
   viewBox="0 0 111 129"
   sodipodi:docname="a30-vectInk-simp22.svg">
  <metadata
     id="metadata8">
    <rdf:RDF>
      <cc:Work
         rdf:about="">
        <dc:format>image/svg+xml</dc:format>
        <dc:type
           rdf:resource="http://purl.org/dc/dcmitype/StillImage" />
        <dc:title></dc:title>
      </cc:Work>
    </rdf:RDF>
  </metadata>
  <defs
     id="defs6" />
  <sodipodi:namedview
     pagecolor="#ffffff"
     bordercolor="#666666"
     borderopacity="1"
     objecttolerance="10"
     gridtolerance="10"
     guidetolerance="10"
     inkscape:pageopacity="0"
     inkscape:pageshadow="2"
     inkscape:window-width="1366"
     inkscape:window-height="721"
     id="namedview4"
     showgrid="false"
     inkscape:zoom="1.8294574"
     inkscape:cx="-9.8199153"
     inkscape:cy="64.5"
     inkscape:window-x="0"
     inkscape:window-y="0"
     inkscape:window-maximized="1"
     inkscape:current-layer="svg2" />
  <path
     style="fill:#000000"
     d="M 80.754147,115.95903 C 73.18139,113.85851 66.196794,107.91216 57.921057,109.67154 46.531811,115.5543 31.576439,117.24531 20.6225,109.48449 8.5267311,101.44378 4.996858,82.241771 15.278491,71.361339 22.938882,62.209 35.43151,58.75745 46.991569,59.342289 55.077801,58.501068 62.102099,50.819365 61.058544,42.526712 61.441448,34.871978 59.34686,25.966903 52.329952,21.766005 46.109278,19.792229 40.169712,27.096999 42.479184,32.925846 43.066696,40.09422 37.068974,48.021932 29.378832,46.91654 19.584623,46.432039 12.352873,34.077732 17.887688,25.589157 23.868543,13.533514 38.344488,8.1861362 51.172165,9.1480033 67.865734,10.311884 84.224476,22.924339 86.437565,40.072017 89.273681,57.477032 85.399073,75.151322 87.533801,92.592718 88.178492,97.110433 90.551658,101.19681 93.911945,104.2188 97.508005,108.96579 94.447785,116.95399 88.082339,116.6885 85.620694,116.94333 83.13623,116.5769 80.754147,115.95903 Z M 52.906821,98.424951 C 59.03252,91.343478 60.257955,81.13175 58.074506,72.266612 54.1929,66.013433 43.56845,66.949394 40.400961,73.425573 34.758251,80.503646 34.259723,91.373761 39.653723,98.732061 43.315574,101.96664 49.358661,101.68842 52.906821,98.424951 Z"
     id="path4138"
     inkscape:connector-curvature="0" />
</svg>
