<?xml version="1.0" encoding="UTF-8" standalone="no"?>
<!-- Created with Inkscape (http://www.inkscape.org/) -->

<svg
   xmlns:dc="http://purl.org/dc/elements/1.1/"
   xmlns:cc="http://creativecommons.org/ns#"
   xmlns:rdf="http://www.w3.org/1999/02/22-rdf-syntax-ns#"
   xmlns:svg="http://www.w3.org/2000/svg"
   xmlns="http://www.w3.org/2000/svg"
   xmlns:sodipodi="http://sodipodi.sourceforge.net/DTD/sodipodi-0.dtd"
   xmlns:inkscape="http://www.inkscape.org/namespaces/inkscape"
   id="svg2"
   version="1.1"
   inkscape:version="0.91 r13725"
   width="111"
   height="129"
   viewBox="0 0 111 129"
   sodipodi:docname="a30-vectInk-simp7.svg">
  <metadata
     id="metadata8">
    <rdf:RDF>
      <cc:Work
         rdf:about="">
        <dc:format>image/svg+xml</dc:format>
        <dc:type
           rdf:resource="http://purl.org/dc/dcmitype/StillImage" />
        <dc:title></dc:title>
      </cc:Work>
    </rdf:RDF>
  </metadata>
  <defs
     id="defs6" />
  <sodipodi:namedview
     pagecolor="#ffffff"
     bordercolor="#666666"
     borderopacity="1"
     objecttolerance="10"
     gridtolerance="10"
     guidetolerance="10"
     inkscape:pageopacity="0"
     inkscape:pageshadow="2"
     inkscape:window-width="1366"
     inkscape:window-height="721"
     id="namedview4"
     showgrid="false"
     inkscape:zoom="1.8294574"
     inkscape:cx="-9.8199153"
     inkscape:cy="64.5"
     inkscape:window-x="0"
     inkscape:window-y="0"
     inkscape:window-maximized="1"
     inkscape:current-layer="svg2" />
  <path
     style="fill:#000000"
     d="M 80.754147,115.95903 C 73.103492,114.11154 66.238881,107.51383 57.921057,109.67154 50.823865,112.39065 43.487415,115.72172 35.686456,114.64705 20.972886,114.09974 7.42156,100.28952 9.2381007,85.249717 10.67074,71.775921 23.135983,61.464977 36.255587,60.240817 43.767333,59.292209 52.915575,59.910626 58.177478,53.404833 62.450832,47.214392 61.090991,39.205563 59.971852,32.25634 58.657099,26.953496 54.526565,21.196612 48.621381,21.06902 43.200204,21.915642 42.192833,28.229094 42.171828,32.75961 42.809938,37.730618 40.731522,43.097146 36.105935,45.437391 28.547471,49.817186 18.670343,44.044947 16.628358,36.062949 14.419398,29.566867 18.636284,23.287744 22.869461,18.714971 30.673919,10.768585 42.467751,8.2160502 53.239719,9.6166241 68.486647,11.056941 82.691438,22.372604 85.988864,37.581767 88.719498,49.379539 86.81148,61.548521 87.151522,73.51534 87.076561,81.14294 87.149791,88.790028 87.973679,96.381074 89.684138,101.71114 96.765871,104.50084 95.932551,110.73666 94.289589,117.20673 85.959984,117.18323 80.754147,115.95903 Z M 52.906821,98.424951 C 59.245541,91.430949 60.042052,81.124514 58.074506,72.266612 54.578194,65.904816 44.542983,67.080354 40.956081,72.750455 34.905345,79.830643 33.978229,91.160401 39.653723,98.732061 43.314754,101.96698 49.359284,101.68794 52.906821,98.424951 Z"
     id="path4138"
     inkscape:connector-curvature="0" />
</svg>
