<?xml version="1.0" encoding="UTF-8" standalone="no"?>
<svg xmlns:dc="http://purl.org/dc/elements/1.1/" xmlns:cc="http://creativecommons.org/ns#" xmlns:rdf="http://www.w3.org/1999/02/22-rdf-syntax-ns#" xmlns:svg="http://www.w3.org/2000/svg" xmlns="http://www.w3.org/2000/svg" xmlns:sodipodi="http://sodipodi.sourceforge.net/DTD/sodipodi-0.dtd" xmlns:inkscape="http://www.inkscape.org/namespaces/inkscape" viewBox="0 0 111 129" height="129" width="111" id="svg2" version="1.1" inkscape:version="0.91 r13725" sodipodi:docname="a30-optiAbs.svg">
  <metadata id="metadata10">
    <rdf:RDF>
      <cc:Work rdf:about="">
        <dc:format>image/svg+xml</dc:format>
        <dc:type rdf:resource="http://purl.org/dc/dcmitype/StillImage"/>
        <dc:title/>
      </cc:Work>
    </rdf:RDF>
  </metadata>
  <defs id="defs8"/>
  <sodipodi:namedview pagecolor="#ffffff" bordercolor="#666666" borderopacity="1" objecttolerance="10" gridtolerance="10" guidetolerance="10" inkscape:pageopacity="0" inkscape:pageshadow="2" inkscape:window-width="811" inkscape:window-height="480" id="namedview6" showgrid="false" inkscape:zoom="1.8294574" inkscape:cx="55.5" inkscape:cy="64.5" inkscape:window-x="0" inkscape:window-y="0" inkscape:window-maximized="0" inkscape:current-layer="svg2"/>
  <path d="M 80.754147,115.95903 C 73.072993,114.21032 66.258098,107.35634 57.92127,109.66948 51.787037,111.44187 46.131864,115.34589 39.414012,115.00355 32.636136,114.65815 25.706542,113.24431 20.254903,109.0344 9.9851148,101.82809 5.674222,86.634049 12.364903,75.62658 17.642591,66.077048 28.275684,60.399612 39.032093,60.042369 45.766021,59.299758 53.920971,59.083467 58.453064,53.271885 62.272101,47.336203 60.916026,39.88396 60.289996,33.271865 59.139393,27.393884 54.526156,21.014223 48.053287,20.985892 41.580165,22.604726 42.617539,30.6986 42.04719,35.822069 42.011144,42.401808 35.78547,47.672223 29.320898,46.80058 20.516178,46.013323 13.373848,36.088535 17.115632,27.494133 21.550343,17.308167 31.918056,10.177883 42.927355,9.7000627 54.250258,8.6309036 66.5406,11.034593 74.932214,19.196135 83.411091,26.828512 87.941138,38.330387 87.277695,49.687654 87.506238,64.874141 86.617928,80.08374 87.71451,95.251353 89.001729,101.57372 98.529553,104.89122 95.996315,112.13537 92.924253,117.09455 85.819588,117.16254 80.754147,115.95903 Z M 52.906821,98.424951 C 59.050421,92.205103 59.553463,82.750988 58.790543,74.585894 58.194278,68.204413 50.122114,66.244123 45.176314,69.316961 36.390393,74.118145 34.229191,86.072052 37.263549,94.944129 39.293645,101.67266 48.149741,102.78092 52.906821,98.424951 Z" id="path4" inkscape:connector-curvature="0"/>
<circle cx="57.921268463134766" cy="109.66947937011719" r="3" id="path0p1" class="point" style="fill:none;stroke:red;stroke-width:0.5;"/><circle cx="73.07299041748047" cy="114.21031951904297" r="1" id="path0h11" class="handlePoint" style="fill:red;stroke:none;stroke-width:0.5;"/><circle cx="66.25809478759766" cy="107.35633850097656" r="1" id="path0h21" class="handlePoint" style="fill:none;stroke:red;stroke-width:0.5;"/><line class="handleLine" style="fill:none;stroke:red;stroke-width:0.5;stroke-dasharray:1, 1;" x1="57.921268463134766" y1="109.66947937011719" x2="73.07299041748047" y2="114.21031951904297"/><line class="handleLine" style="fill:none;stroke:red;stroke-width:0.5;stroke-dasharray:1, 1;" x1="57.921268463134766" y1="109.66947937011719" x2="66.25809478759766" y2="107.35633850097656"/><circle cx="39.41401290893555" cy="115.00354766845703" r="3" id="path0p2" class="point" style="fill:none;stroke:red;stroke-width:0.5;"/><circle cx="51.78703689575195" cy="111.4418716430664" r="1" id="path0h12" class="handlePoint" style="fill:red;stroke:none;stroke-width:0.5;"/><circle cx="46.13186264038086" cy="115.34588623046875" r="1" id="path0h22" class="handlePoint" style="fill:none;stroke:red;stroke-width:0.5;"/><line class="handleLine" style="fill:none;stroke:red;stroke-width:0.5;stroke-dasharray:1, 1;" x1="39.41401290893555" y1="115.00354766845703" x2="51.78703689575195" y2="111.4418716430664"/><line class="handleLine" style="fill:none;stroke:red;stroke-width:0.5;stroke-dasharray:1, 1;" x1="39.41401290893555" y1="115.00354766845703" x2="46.13186264038086" y2="115.34588623046875"/><circle cx="20.25490379333496" cy="109.0344009399414" r="3" id="path0p3" class="point" style="fill:none;stroke:red;stroke-width:0.5;"/><circle cx="32.63613510131836" cy="114.65814971923828" r="1" id="path0h13" class="handlePoint" style="fill:red;stroke:none;stroke-width:0.5;"/><circle cx="25.706541061401367" cy="113.24430847167969" r="1" id="path0h23" class="handlePoint" style="fill:none;stroke:red;stroke-width:0.5;"/><line class="handleLine" style="fill:none;stroke:red;stroke-width:0.5;stroke-dasharray:1, 1;" x1="20.25490379333496" y1="109.0344009399414" x2="32.63613510131836" y2="114.65814971923828"/><line class="handleLine" style="fill:none;stroke:red;stroke-width:0.5;stroke-dasharray:1, 1;" x1="20.25490379333496" y1="109.0344009399414" x2="25.706541061401367" y2="113.24430847167969"/><circle cx="12.364903450012207" cy="75.62657928466797" r="3" id="path0p4" class="point" style="fill:none;stroke:red;stroke-width:0.5;"/><circle cx="9.985115051269531" cy="101.82808685302734" r="1" id="path0h14" class="handlePoint" style="fill:red;stroke:none;stroke-width:0.5;"/><circle cx="5.674221992492676" cy="86.63404846191406" r="1" id="path0h24" class="handlePoint" style="fill:none;stroke:red;stroke-width:0.5;"/><line class="handleLine" style="fill:none;stroke:red;stroke-width:0.5;stroke-dasharray:1, 1;" x1="12.364903450012207" y1="75.62657928466797" x2="9.985115051269531" y2="101.82808685302734"/><line class="handleLine" style="fill:none;stroke:red;stroke-width:0.5;stroke-dasharray:1, 1;" x1="12.364903450012207" y1="75.62657928466797" x2="5.674221992492676" y2="86.63404846191406"/><circle cx="39.0320930480957" cy="60.0423698425293" r="3" id="path0p5" class="point" style="fill:none;stroke:red;stroke-width:0.5;"/><circle cx="17.64259147644043" cy="66.0770492553711" r="1" id="path0h15" class="handlePoint" style="fill:red;stroke:none;stroke-width:0.5;"/><circle cx="28.275684356689453" cy="60.39961242675781" r="1" id="path0h25" class="handlePoint" style="fill:none;stroke:red;stroke-width:0.5;"/><line class="handleLine" style="fill:none;stroke:red;stroke-width:0.5;stroke-dasharray:1, 1;" x1="39.0320930480957" y1="60.0423698425293" x2="17.64259147644043" y2="66.0770492553711"/><line class="handleLine" style="fill:none;stroke:red;stroke-width:0.5;stroke-dasharray:1, 1;" x1="39.0320930480957" y1="60.0423698425293" x2="28.275684356689453" y2="60.39961242675781"/><circle cx="58.45306396484375" cy="53.27188491821289" r="3" id="path0p6" class="point" style="fill:none;stroke:red;stroke-width:0.5;"/><circle cx="45.766021728515625" cy="59.29975891113281" r="1" id="path0h16" class="handlePoint" style="fill:red;stroke:none;stroke-width:0.5;"/><circle cx="53.92097091674805" cy="59.083465576171875" r="1" id="path0h26" class="handlePoint" style="fill:none;stroke:red;stroke-width:0.5;"/><line class="handleLine" style="fill:none;stroke:red;stroke-width:0.5;stroke-dasharray:1, 1;" x1="58.45306396484375" y1="53.27188491821289" x2="45.766021728515625" y2="59.29975891113281"/><line class="handleLine" style="fill:none;stroke:red;stroke-width:0.5;stroke-dasharray:1, 1;" x1="58.45306396484375" y1="53.27188491821289" x2="53.92097091674805" y2="59.083465576171875"/><circle cx="60.28999710083008" cy="33.27186584472656" r="3" id="path0p7" class="point" style="fill:none;stroke:red;stroke-width:0.5;"/><circle cx="62.27210235595703" cy="47.336204528808594" r="1" id="path0h17" class="handlePoint" style="fill:red;stroke:none;stroke-width:0.5;"/><circle cx="60.9160270690918" cy="39.88396072387695" r="1" id="path0h27" class="handlePoint" style="fill:none;stroke:red;stroke-width:0.5;"/><line class="handleLine" style="fill:none;stroke:red;stroke-width:0.5;stroke-dasharray:1, 1;" x1="60.28999710083008" y1="33.27186584472656" x2="62.27210235595703" y2="47.336204528808594"/><line class="handleLine" style="fill:none;stroke:red;stroke-width:0.5;stroke-dasharray:1, 1;" x1="60.28999710083008" y1="33.27186584472656" x2="60.9160270690918" y2="39.88396072387695"/><circle cx="48.053287506103516" cy="20.985891342163086" r="3" id="path0p8" class="point" style="fill:none;stroke:red;stroke-width:0.5;"/><circle cx="59.1393928527832" cy="27.393884658813477" r="1" id="path0h18" class="handlePoint" style="fill:red;stroke:none;stroke-width:0.5;"/><circle cx="54.52615737915039" cy="21.014223098754883" r="1" id="path0h28" class="handlePoint" style="fill:none;stroke:red;stroke-width:0.5;"/><line class="handleLine" style="fill:none;stroke:red;stroke-width:0.5;stroke-dasharray:1, 1;" x1="48.053287506103516" y1="20.985891342163086" x2="59.1393928527832" y2="27.393884658813477"/><line class="handleLine" style="fill:none;stroke:red;stroke-width:0.5;stroke-dasharray:1, 1;" x1="48.053287506103516" y1="20.985891342163086" x2="54.52615737915039" y2="21.014223098754883"/><circle cx="42.04719161987305" cy="35.82206726074219" r="3" id="path0p9" class="point" style="fill:none;stroke:red;stroke-width:0.5;"/><circle cx="41.58016586303711" cy="22.604726791381836" r="1" id="path0h19" class="handlePoint" style="fill:red;stroke:none;stroke-width:0.5;"/><circle cx="42.61753845214844" cy="30.69860076904297" r="1" id="path0h29" class="handlePoint" style="fill:none;stroke:red;stroke-width:0.5;"/><line class="handleLine" style="fill:none;stroke:red;stroke-width:0.5;stroke-dasharray:1, 1;" x1="42.04719161987305" y1="35.82206726074219" x2="41.58016586303711" y2="22.604726791381836"/><line class="handleLine" style="fill:none;stroke:red;stroke-width:0.5;stroke-dasharray:1, 1;" x1="42.04719161987305" y1="35.82206726074219" x2="42.61753845214844" y2="30.69860076904297"/><circle cx="29.320898056030273" cy="46.80057907104492" r="3" id="path0p10" class="point" style="fill:none;stroke:red;stroke-width:0.5;"/><circle cx="42.01114273071289" cy="42.40180969238281" r="1" id="path0h110" class="handlePoint" style="fill:red;stroke:none;stroke-width:0.5;"/><circle cx="35.78546905517578" cy="47.67222213745117" r="1" id="path0h210" class="handlePoint" style="fill:none;stroke:red;stroke-width:0.5;"/><line class="handleLine" style="fill:none;stroke:red;stroke-width:0.5;stroke-dasharray:1, 1;" x1="29.320898056030273" y1="46.80057907104492" x2="42.01114273071289" y2="42.40180969238281"/><line class="handleLine" style="fill:none;stroke:red;stroke-width:0.5;stroke-dasharray:1, 1;" x1="29.320898056030273" y1="46.80057907104492" x2="35.78546905517578" y2="47.67222213745117"/><circle cx="17.115631103515625" cy="27.49413299560547" r="3" id="path0p11" class="point" style="fill:none;stroke:red;stroke-width:0.5;"/><circle cx="20.516178131103516" cy="46.01332473754883" r="1" id="path0h111" class="handlePoint" style="fill:red;stroke:none;stroke-width:0.5;"/><circle cx="13.373847961425781" cy="36.08853530883789" r="1" id="path0h211" class="handlePoint" style="fill:none;stroke:red;stroke-width:0.5;"/><line class="handleLine" style="fill:none;stroke:red;stroke-width:0.5;stroke-dasharray:1, 1;" x1="17.115631103515625" y1="27.49413299560547" x2="20.516178131103516" y2="46.01332473754883"/><line class="handleLine" style="fill:none;stroke:red;stroke-width:0.5;stroke-dasharray:1, 1;" x1="17.115631103515625" y1="27.49413299560547" x2="13.373847961425781" y2="36.08853530883789"/><circle cx="42.9273567199707" cy="9.70006275177002" r="3" id="path0p12" class="point" style="fill:none;stroke:red;stroke-width:0.5;"/><circle cx="21.550342559814453" cy="17.30816650390625" r="1" id="path0h112" class="handlePoint" style="fill:red;stroke:none;stroke-width:0.5;"/><circle cx="31.91805648803711" cy="10.17788314819336" r="1" id="path0h212" class="handlePoint" style="fill:none;stroke:red;stroke-width:0.5;"/><line class="handleLine" style="fill:none;stroke:red;stroke-width:0.5;stroke-dasharray:1, 1;" x1="42.9273567199707" y1="9.70006275177002" x2="21.550342559814453" y2="17.30816650390625"/><line class="handleLine" style="fill:none;stroke:red;stroke-width:0.5;stroke-dasharray:1, 1;" x1="42.9273567199707" y1="9.70006275177002" x2="31.91805648803711" y2="10.17788314819336"/><circle cx="74.93221282958984" cy="19.196134567260742" r="3" id="path0p13" class="point" style="fill:none;stroke:red;stroke-width:0.5;"/><circle cx="54.25025939941406" cy="8.630903244018555" r="1" id="path0h113" class="handlePoint" style="fill:red;stroke:none;stroke-width:0.5;"/><circle cx="66.54060363769531" cy="11.034592628479004" r="1" id="path0h213" class="handlePoint" style="fill:none;stroke:red;stroke-width:0.5;"/><line class="handleLine" style="fill:none;stroke:red;stroke-width:0.5;stroke-dasharray:1, 1;" x1="74.93221282958984" y1="19.196134567260742" x2="54.25025939941406" y2="8.630903244018555"/><line class="handleLine" style="fill:none;stroke:red;stroke-width:0.5;stroke-dasharray:1, 1;" x1="74.93221282958984" y1="19.196134567260742" x2="66.54060363769531" y2="11.034592628479004"/><circle cx="87.27769470214844" cy="49.687652587890625" r="3" id="path0p14" class="point" style="fill:none;stroke:red;stroke-width:0.5;"/><circle cx="83.41109466552734" cy="26.82851219177246" r="1" id="path0h114" class="handlePoint" style="fill:red;stroke:none;stroke-width:0.5;"/><circle cx="87.9411392211914" cy="38.330387115478516" r="1" id="path0h214" class="handlePoint" style="fill:none;stroke:red;stroke-width:0.5;"/><line class="handleLine" style="fill:none;stroke:red;stroke-width:0.5;stroke-dasharray:1, 1;" x1="87.27769470214844" y1="49.687652587890625" x2="83.41109466552734" y2="26.82851219177246"/><line class="handleLine" style="fill:none;stroke:red;stroke-width:0.5;stroke-dasharray:1, 1;" x1="87.27769470214844" y1="49.687652587890625" x2="87.9411392211914" y2="38.330387115478516"/><circle cx="87.71450805664062" cy="95.25135040283203" r="3" id="path0p15" class="point" style="fill:none;stroke:red;stroke-width:0.5;"/><circle cx="87.50624084472656" cy="64.87413787841797" r="1" id="path0h115" class="handlePoint" style="fill:red;stroke:none;stroke-width:0.5;"/><circle cx="86.61792755126953" cy="80.083740234375" r="1" id="path0h215" class="handlePoint" style="fill:none;stroke:red;stroke-width:0.5;"/><line class="handleLine" style="fill:none;stroke:red;stroke-width:0.5;stroke-dasharray:1, 1;" x1="87.71450805664062" y1="95.25135040283203" x2="87.50624084472656" y2="64.87413787841797"/><line class="handleLine" style="fill:none;stroke:red;stroke-width:0.5;stroke-dasharray:1, 1;" x1="87.71450805664062" y1="95.25135040283203" x2="86.61792755126953" y2="80.083740234375"/><circle cx="95.9963150024414" cy="112.13536834716797" r="3" id="path0p16" class="point" style="fill:none;stroke:red;stroke-width:0.5;"/><circle cx="89.0017318725586" cy="101.57372283935547" r="1" id="path0h116" class="handlePoint" style="fill:red;stroke:none;stroke-width:0.5;"/><circle cx="98.52955627441406" cy="104.89122009277344" r="1" id="path0h216" class="handlePoint" style="fill:none;stroke:red;stroke-width:0.5;"/><line class="handleLine" style="fill:none;stroke:red;stroke-width:0.5;stroke-dasharray:1, 1;" x1="95.9963150024414" y1="112.13536834716797" x2="89.0017318725586" y2="101.57372283935547"/><line class="handleLine" style="fill:none;stroke:red;stroke-width:0.5;stroke-dasharray:1, 1;" x1="95.9963150024414" y1="112.13536834716797" x2="98.52955627441406" y2="104.89122009277344"/><circle cx="80.754150390625" cy="115.95903015136719" r="3" id="path0p17" class="point" style="fill:none;stroke:red;stroke-width:0.5;"/><circle cx="92.92425537109375" cy="117.09455108642578" r="1" id="path0h117" class="handlePoint" style="fill:red;stroke:none;stroke-width:0.5;"/><circle cx="85.81958770751953" cy="117.16253662109375" r="1" id="path0h217" class="handlePoint" style="fill:none;stroke:red;stroke-width:0.5;"/><line class="handleLine" style="fill:none;stroke:red;stroke-width:0.5;stroke-dasharray:1, 1;" x1="80.754150390625" y1="115.95903015136719" x2="92.92425537109375" y2="117.09455108642578"/><line class="handleLine" style="fill:none;stroke:red;stroke-width:0.5;stroke-dasharray:1, 1;" x1="80.754150390625" y1="115.95903015136719" x2="85.81958770751953" y2="117.16253662109375"/><circle cx="58.79054260253906" cy="74.58589172363281" r="3" id="path0p20" class="point" style="fill:none;stroke:red;stroke-width:0.5;"/><circle cx="59.05042266845703" cy="92.2051010131836" r="1" id="path0h120" class="handlePoint" style="fill:red;stroke:none;stroke-width:0.5;"/><circle cx="59.553462982177734" cy="82.75098419189453" r="1" id="path0h220" class="handlePoint" style="fill:none;stroke:red;stroke-width:0.5;"/><line class="handleLine" style="fill:none;stroke:red;stroke-width:0.5;stroke-dasharray:1, 1;" x1="58.79054260253906" y1="74.58589172363281" x2="59.05042266845703" y2="92.2051010131836"/><line class="handleLine" style="fill:none;stroke:red;stroke-width:0.5;stroke-dasharray:1, 1;" x1="58.79054260253906" y1="74.58589172363281" x2="59.553462982177734" y2="82.75098419189453"/><circle cx="45.17631530761719" cy="69.31696319580078" r="3" id="path0p21" class="point" style="fill:none;stroke:red;stroke-width:0.5;"/><circle cx="58.194278717041016" cy="68.20441436767578" r="1" id="path0h121" class="handlePoint" style="fill:red;stroke:none;stroke-width:0.5;"/><circle cx="50.12211227416992" cy="66.24412536621094" r="1" id="path0h221" class="handlePoint" style="fill:none;stroke:red;stroke-width:0.5;"/><line class="handleLine" style="fill:none;stroke:red;stroke-width:0.5;stroke-dasharray:1, 1;" x1="45.17631530761719" y1="69.31696319580078" x2="58.194278717041016" y2="68.20441436767578"/><line class="handleLine" style="fill:none;stroke:red;stroke-width:0.5;stroke-dasharray:1, 1;" x1="45.17631530761719" y1="69.31696319580078" x2="50.12211227416992" y2="66.24412536621094"/><circle cx="37.2635498046875" cy="94.94412994384766" r="3" id="path0p22" class="point" style="fill:none;stroke:red;stroke-width:0.5;"/><circle cx="36.3903923034668" cy="74.11814880371094" r="1" id="path0h122" class="handlePoint" style="fill:red;stroke:none;stroke-width:0.5;"/><circle cx="34.229190826416016" cy="86.07205200195312" r="1" id="path0h222" class="handlePoint" style="fill:none;stroke:red;stroke-width:0.5;"/><line class="handleLine" style="fill:none;stroke:red;stroke-width:0.5;stroke-dasharray:1, 1;" x1="37.2635498046875" y1="94.94412994384766" x2="36.3903923034668" y2="74.11814880371094"/><line class="handleLine" style="fill:none;stroke:red;stroke-width:0.5;stroke-dasharray:1, 1;" x1="37.2635498046875" y1="94.94412994384766" x2="34.229190826416016" y2="86.07205200195312"/><circle cx="52.906822204589844" cy="98.4249496459961" r="3" id="path0p23" class="point" style="fill:none;stroke:red;stroke-width:0.5;"/><circle cx="39.293643951416016" cy="101.67266082763672" r="1" id="path0h123" class="handlePoint" style="fill:red;stroke:none;stroke-width:0.5;"/><circle cx="48.149742126464844" cy="102.78092193603516" r="1" id="path0h223" class="handlePoint" style="fill:none;stroke:red;stroke-width:0.5;"/><line class="handleLine" style="fill:none;stroke:red;stroke-width:0.5;stroke-dasharray:1, 1;" x1="52.906822204589844" y1="98.4249496459961" x2="39.293643951416016" y2="101.67266082763672"/><line class="handleLine" style="fill:none;stroke:red;stroke-width:0.5;stroke-dasharray:1, 1;" x1="52.906822204589844" y1="98.4249496459961" x2="48.149742126464844" y2="102.78092193603516"/></svg>