<?xml version="1.0" encoding="UTF-8" standalone="no"?>
<!-- Created with Inkscape (http://www.inkscape.org/) -->

<svg
   xmlns:dc="http://purl.org/dc/elements/1.1/"
   xmlns:cc="http://creativecommons.org/ns#"
   xmlns:rdf="http://www.w3.org/1999/02/22-rdf-syntax-ns#"
   xmlns:svg="http://www.w3.org/2000/svg"
   xmlns="http://www.w3.org/2000/svg"
   xmlns:sodipodi="http://sodipodi.sourceforge.net/DTD/sodipodi-0.dtd"
   xmlns:inkscape="http://www.inkscape.org/namespaces/inkscape"
   id="svg2"
   version="1.1"
   inkscape:version="0.91 r13725"
   width="111"
   height="129"
   viewBox="0 0 111 129"
   sodipodi:docname="a30-vectInk-simp15.svg">
  <metadata
     id="metadata8">
    <rdf:RDF>
      <cc:Work
         rdf:about="">
        <dc:format>image/svg+xml</dc:format>
        <dc:type
           rdf:resource="http://purl.org/dc/dcmitype/StillImage" />
        <dc:title></dc:title>
      </cc:Work>
    </rdf:RDF>
  </metadata>
  <defs
     id="defs6" />
  <sodipodi:namedview
     pagecolor="#ffffff"
     bordercolor="#666666"
     borderopacity="1"
     objecttolerance="10"
     gridtolerance="10"
     guidetolerance="10"
     inkscape:pageopacity="0"
     inkscape:pageshadow="2"
     inkscape:window-width="1366"
     inkscape:window-height="721"
     id="namedview4"
     showgrid="false"
     inkscape:zoom="1.8294574"
     inkscape:cx="-9.8199153"
     inkscape:cy="64.5"
     inkscape:window-x="0"
     inkscape:window-y="0"
     inkscape:window-maximized="1"
     inkscape:current-layer="svg2" />
  <path
     style="fill:#000000"
     d="M 80.754147,115.95903 C 73.147167,113.96913 66.215701,107.73994 57.921057,109.67154 47.193942,114.87521 33.586577,117.35668 22.851192,110.84379 11.256298,104.36221 5.0857631,88.187886 12.000714,76.254039 18.033864,64.7192 31.624722,58.900601 44.239353,59.576651 51.130064,59.143724 59.330811,55.540299 60.402995,47.903966 62.130296,39.640312 60.798485,30.213716 55.313415,23.602357 51.099162,19.619793 42.762198,21.589776 42.652839,27.986474 41.826469,33.371552 43.213779,40.030827 38.354529,43.899536 31.224491,50.403192 18.428316,45.402387 16.608545,36.186697 14.397829,27.898177 20.095509,19.845482 26.798218,15.524565 44.694422,2.9430811 72.607827,9.6040074 82.785212,29.018349 88.69328,39.713129 87.318902,52.266107 87.318368,64.004262 87.160645,73.835276 86.521269,83.735985 87.56484,93.525721 88.498828,98.479551 91.755132,102.52684 95.091504,106.08454 98.132016,111.78826 91.236692,118.31941 85.513469,116.58286 83.912459,116.51266 82.325646,116.26233 80.754147,115.95903 Z M 52.906821,98.424951 C 59.119823,91.378979 60.168855,81.129023 58.074506,72.266612 54.258545,65.865063 43.637768,67.07108 40.400961,73.425573 34.795997,80.51433 34.220216,91.382911 39.653723,98.732061 43.315527,101.96682 49.358614,101.68824 52.906821,98.424951 Z"
     id="path4138"
     inkscape:connector-curvature="0" />
</svg>
