<?xml version="1.0" encoding="UTF-8" standalone="no"?>
<!-- Created with Inkscape (http://www.inkscape.org/) -->

<svg
   xmlns:dc="http://purl.org/dc/elements/1.1/"
   xmlns:cc="http://creativecommons.org/ns#"
   xmlns:rdf="http://www.w3.org/1999/02/22-rdf-syntax-ns#"
   xmlns:svg="http://www.w3.org/2000/svg"
   xmlns="http://www.w3.org/2000/svg"
   xmlns:sodipodi="http://sodipodi.sourceforge.net/DTD/sodipodi-0.dtd"
   xmlns:inkscape="http://www.inkscape.org/namespaces/inkscape"
   id="svg2"
   version="1.1"
   inkscape:version="0.91 r13725"
   width="111"
   height="129"
   viewBox="0 0 111 129"
   sodipodi:docname="a30-vectInk-simp28.svg">
  <metadata
     id="metadata8">
    <rdf:RDF>
      <cc:Work
         rdf:about="">
        <dc:format>image/svg+xml</dc:format>
        <dc:type
           rdf:resource="http://purl.org/dc/dcmitype/StillImage" />
        <dc:title></dc:title>
      </cc:Work>
    </rdf:RDF>
  </metadata>
  <defs
     id="defs6" />
  <sodipodi:namedview
     pagecolor="#ffffff"
     bordercolor="#666666"
     borderopacity="1"
     objecttolerance="10"
     gridtolerance="10"
     guidetolerance="10"
     inkscape:pageopacity="0"
     inkscape:pageshadow="2"
     inkscape:window-width="1366"
     inkscape:window-height="721"
     id="namedview4"
     showgrid="false"
     inkscape:zoom="1.8294574"
     inkscape:cx="-9.8199153"
     inkscape:cy="64.5"
     inkscape:window-x="0"
     inkscape:window-y="0"
     inkscape:window-maximized="1"
     inkscape:current-layer="svg2" />
  <path
     style="fill:#000000"
     d="M 80.754147,115.95903 C 73.208249,113.77231 66.181563,108.04421 57.921057,109.67154 45.84553,116.24254 29.393197,117.07325 18.416702,107.84868 6.985047,98.506012 5.9039032,78.556865 17.543754,68.937147 25.740884,61.144733 37.564715,58.860825 48.525056,59.111783 57.632675,57.435056 63.096285,47.139833 61.038113,38.442027 60.623748,31.781426 57.844874,24.184399 51.1936,21.506396 43.682577,20.776057 40.51319,29.394255 42.551332,35.413632 41.92134,43.736786 31.697319,50.255195 24.224023,45.579264 15.766702,41.513733 13.185092,28.77553 20.037311,22.093527 30.207466,8.4835969 50.392518,5.6889737 65.216196,12.762842 77.614226,18.481367 86.933432,31.184667 87.094724,45.047354 88.787921,62.13635 84.857789,79.449023 88.329788,96.414538 90.598863,101.52144 97.190144,105.8338 94.905415,112.11201 92.60312,117.46797 85.473011,117.57425 80.754147,115.95903 Z M 52.906821,98.424951 C 58.971203,91.318721 60.321068,81.133542 58.074506,72.266612 54.163075,66.078873 43.541803,66.900647 40.400961,73.425573 34.735216,80.497119 34.283952,91.368159 39.653723,98.732061 43.315616,101.96649 49.358702,101.68857 52.906821,98.424951 Z"
     id="path4138"
     inkscape:connector-curvature="0" />
</svg>
