<?xml version="1.0" encoding="UTF-8" standalone="no"?>
<!-- Created with Inkscape (http://www.inkscape.org/) -->

<svg
   xmlns:dc="http://purl.org/dc/elements/1.1/"
   xmlns:cc="http://creativecommons.org/ns#"
   xmlns:rdf="http://www.w3.org/1999/02/22-rdf-syntax-ns#"
   xmlns:svg="http://www.w3.org/2000/svg"
   xmlns="http://www.w3.org/2000/svg"
   xmlns:sodipodi="http://sodipodi.sourceforge.net/DTD/sodipodi-0.dtd"
   xmlns:inkscape="http://www.inkscape.org/namespaces/inkscape"
   id="svg2"
   version="1.1"
   inkscape:version="0.91 r13725"
   width="111"
   height="129"
   viewBox="0 0 111 129"
   sodipodi:docname="a30-vectInk-simp23.svg">
  <metadata
     id="metadata8">
    <rdf:RDF>
      <cc:Work
         rdf:about="">
        <dc:format>image/svg+xml</dc:format>
        <dc:type
           rdf:resource="http://purl.org/dc/dcmitype/StillImage" />
        <dc:title></dc:title>
      </cc:Work>
    </rdf:RDF>
  </metadata>
  <defs
     id="defs6" />
  <sodipodi:namedview
     pagecolor="#ffffff"
     bordercolor="#666666"
     borderopacity="1"
     objecttolerance="10"
     gridtolerance="10"
     guidetolerance="10"
     inkscape:pageopacity="0"
     inkscape:pageshadow="2"
     inkscape:window-width="1366"
     inkscape:window-height="721"
     id="namedview4"
     showgrid="false"
     inkscape:zoom="1.8294574"
     inkscape:cx="-9.8199153"
     inkscape:cy="64.5"
     inkscape:window-x="0"
     inkscape:window-y="0"
     inkscape:window-maximized="1"
     inkscape:current-layer="svg2" />
  <path
     style="fill:#000000"
     d="M 80.754147,115.95903 C 73.186015,113.84363 66.194194,107.9351 57.921057,109.67154 46.35636,115.70755 31.038552,117.22878 20.061805,109.09948 8.211177,100.78196 5.1708534,81.546564 15.641089,70.936492 23.507969,61.829205 36.151322,58.794814 47.746328,59.243574 55.817895,58.049847 62.297332,50.002833 61.087108,41.805599 61.336955,34.358878 59.106984,25.839279 52.329952,21.766005 46.178225,19.770273 40.108929,27.150763 42.479184,32.925846 43.217551,40.436899 36.375142,48.552162 28.468444,46.836823 18.848596,45.685561 12.385407,33.205272 18.174224,25.02896 24.656925,12.886234 39.635787,7.7826397 52.735785,9.2904469 69.133852,11.053985 84.775068,23.967217 86.565641,40.888072 89.301075,58.594376 85.055903,76.57932 87.855134,94.265406 88.369322,100.36952 95.467357,103.22008 95.435435,109.26788 95.470086,116.48462 87.15469,117.99686 81.651983,116.17822 L 80.754147,115.95903 Z M 52.906821,98.424951 C 59.021506,91.339021 60.269259,81.13208 58.074506,72.266612 54.186672,66.027191 43.56251,66.938664 40.400961,73.425573 34.753894,80.502412 34.264295,91.372704 39.653723,98.732061 43.315582,101.96662 49.358669,101.68844 52.906821,98.424951 Z"
     id="path4138"
     inkscape:connector-curvature="0" />
</svg>
