<?xml version="1.0" encoding="UTF-8" standalone="no"?>
<!-- Created with Inkscape (http://www.inkscape.org/) -->

<svg
   xmlns:dc="http://purl.org/dc/elements/1.1/"
   xmlns:cc="http://creativecommons.org/ns#"
   xmlns:rdf="http://www.w3.org/1999/02/22-rdf-syntax-ns#"
   xmlns:svg="http://www.w3.org/2000/svg"
   xmlns="http://www.w3.org/2000/svg"
   xmlns:sodipodi="http://sodipodi.sourceforge.net/DTD/sodipodi-0.dtd"
   xmlns:inkscape="http://www.inkscape.org/namespaces/inkscape"
   id="svg2"
   version="1.1"
   inkscape:version="0.91 r13725"
   width="111"
   height="129"
   viewBox="0 0 111 129"
   sodipodi:docname="a30-vectInk-simp2.svg">
  <metadata
     id="metadata8">
    <rdf:RDF>
      <cc:Work
         rdf:about="">
        <dc:format>image/svg+xml</dc:format>
        <dc:type
           rdf:resource="http://purl.org/dc/dcmitype/StillImage" />
        <dc:title></dc:title>
      </cc:Work>
    </rdf:RDF>
  </metadata>
  <defs
     id="defs6" />
  <sodipodi:namedview
     pagecolor="#ffffff"
     bordercolor="#666666"
     borderopacity="1"
     objecttolerance="10"
     gridtolerance="10"
     guidetolerance="10"
     inkscape:pageopacity="0"
     inkscape:pageshadow="2"
     inkscape:window-width="1366"
     inkscape:window-height="721"
     id="namedview4"
     showgrid="false"
     inkscape:zoom="1.8294574"
     inkscape:cx="-9.8199153"
     inkscape:cy="64.5"
     inkscape:window-x="0"
     inkscape:window-y="0"
     inkscape:window-maximized="1"
     inkscape:current-layer="svg2" />
  <path
     style="fill:#000000"
     d="M 80.754147,115.95903 C 73.073105,114.21148 66.257084,107.35352 57.921057,109.67154 52.169424,111.32187 46.85859,115.05108 40.624286,114.49489 33.650811,114.96909 26.407124,113.63647 20.723768,109.36403 10.12879,102.2821 5.5666177,86.807891 12.364903,75.62658 17.642591,66.077048 28.275684,60.399612 39.032093,60.042369 45.76602,59.299758 53.920971,59.083469 58.453062,53.271885 62.272093,47.336204 60.916046,39.883959 60.29,33.271865 59.139388,27.393887 54.52616,21.014222 48.053287,20.985892 41.580165,22.604726 42.617539,30.6986 42.04719,35.822069 42.011144,42.401808 35.78547,47.672223 29.320898,46.80058 20.516178,46.013323 13.089866,35.959232 17.115632,27.494133 21.262539,17.187643 31.918056,10.177883 42.927355,9.7000627 54.250258,8.6309036 66.5406,11.034593 74.932214,19.196135 83.411091,26.828512 87.941138,38.330387 87.277695,49.687654 87.506238,64.874141 86.617928,80.08374 87.71451,95.251353 88.664405,101.63981 98.4982,105.16786 95.716952,112.14114 92.612177,117.0345 85.811401,117.20347 80.754147,115.95903 Z M 52.906821,98.424951 C 59.050421,92.205103 59.290787,82.771281 58.790543,74.585894 57.9325,68.234312 50.122114,66.244123 45.176314,69.316961 36.390393,74.118145 34.229191,86.072052 37.263548,94.944129 39.293645,101.67266 48.149741,102.78092 52.906821,98.424951 Z"
     id="path4138"
     inkscape:connector-curvature="0" />
</svg>
