<?xml version="1.0" encoding="UTF-8" standalone="no"?>
<!-- Created with Inkscape (http://www.inkscape.org/) -->

<svg
   xmlns:dc="http://purl.org/dc/elements/1.1/"
   xmlns:cc="http://creativecommons.org/ns#"
   xmlns:rdf="http://www.w3.org/1999/02/22-rdf-syntax-ns#"
   xmlns:svg="http://www.w3.org/2000/svg"
   xmlns="http://www.w3.org/2000/svg"
   xmlns:sodipodi="http://sodipodi.sourceforge.net/DTD/sodipodi-0.dtd"
   xmlns:inkscape="http://www.inkscape.org/namespaces/inkscape"
   id="svg2"
   version="1.1"
   inkscape:version="0.91 r13725"
   width="111"
   height="129"
   viewBox="0 0 111 129"
   sodipodi:docname="a30-vectInk-simp4.svg">
  <metadata
     id="metadata8">
    <rdf:RDF>
      <cc:Work
         rdf:about="">
        <dc:format>image/svg+xml</dc:format>
        <dc:type
           rdf:resource="http://purl.org/dc/dcmitype/StillImage" />
        <dc:title></dc:title>
      </cc:Work>
    </rdf:RDF>
  </metadata>
  <defs
     id="defs6" />
  <sodipodi:namedview
     pagecolor="#ffffff"
     bordercolor="#666666"
     borderopacity="1"
     objecttolerance="10"
     gridtolerance="10"
     guidetolerance="10"
     inkscape:pageopacity="0"
     inkscape:pageshadow="2"
     inkscape:window-width="1366"
     inkscape:window-height="721"
     id="namedview4"
     showgrid="false"
     inkscape:zoom="1.8294574"
     inkscape:cx="-9.8199153"
     inkscape:cy="64.5"
     inkscape:window-x="0"
     inkscape:window-y="0"
     inkscape:window-maximized="1"
     inkscape:current-layer="svg2" />
  <path
     style="fill:#000000"
     d="M 80.754147,115.95903 C 73.085628,114.17017 66.248025,107.41938 57.921057,109.67154 51.713294,111.69612 45.713464,115.3038 38.943389,114.60397 25.892461,115.47183 12.638945,106.45771 9.8530714,93.450591 7.2524805,83.473422 11.875967,72.7237 20.055434,66.752964 26.68904,61.538441 35.222751,59.869343 43.460059,59.587985 49.773422,59.019614 57.594267,57.138134 59.864718,50.371321 61.971399,44.160827 60.918767,37.410888 59.729457,31.135251 58.079815,26.029534 53.777247,21.055904 48.053287,20.985892 41.3448,23.013011 42.550995,31.361476 42.062139,36.824782 41.242457,44.046951 33.109573,48.929018 26.362886,46.198862 18.588116,43.704126 13.187471,33.952843 17.564937,26.432937 22.601881,15.196141 35.264471,8.8679325 47.271846,9.4473113 60.324166,8.9502556 73.8667,14.860902 80.935075,26.136052 86.448251,34.226896 87.940663,44.29363 87.320223,53.886492 87.39426,67.870395 86.614558,81.885839 87.828934,95.842083 89.155179,101.67472 97.62892,104.77295 95.869826,111.44286 93.472354,117.16364 85.85292,117.16704 80.754147,115.95903 Z M 52.906821,98.424951 C 59.250354,91.677393 59.753507,81.506186 58.340141,72.845284 55.715253,66.467856 46.290207,66.668802 42.197942,71.446663 35.177389,78.086138 33.922033,89.92551 38.965091,98.040449 42.444405,101.97874 49.146364,101.90963 52.906821,98.424951 Z"
     id="path4138"
     inkscape:connector-curvature="0" />
</svg>
