<?xml version="1.0" encoding="UTF-8" standalone="no"?>
<!-- Created with Inkscape (http://www.inkscape.org/) -->

<svg
   xmlns:dc="http://purl.org/dc/elements/1.1/"
   xmlns:cc="http://creativecommons.org/ns#"
   xmlns:rdf="http://www.w3.org/1999/02/22-rdf-syntax-ns#"
   xmlns:svg="http://www.w3.org/2000/svg"
   xmlns="http://www.w3.org/2000/svg"
   xmlns:sodipodi="http://sodipodi.sourceforge.net/DTD/sodipodi-0.dtd"
   xmlns:inkscape="http://www.inkscape.org/namespaces/inkscape"
   id="svg2"
   version="1.1"
   inkscape:version="0.91 r13725"
   width="111"
   height="129"
   viewBox="0 0 111 129"
   sodipodi:docname="a30-vectInk-simp19.svg">
  <metadata
     id="metadata8">
    <rdf:RDF>
      <cc:Work
         rdf:about="">
        <dc:format>image/svg+xml</dc:format>
        <dc:type
           rdf:resource="http://purl.org/dc/dcmitype/StillImage" />
        <dc:title></dc:title>
      </cc:Work>
    </rdf:RDF>
  </metadata>
  <defs
     id="defs6" />
  <sodipodi:namedview
     pagecolor="#ffffff"
     bordercolor="#666666"
     borderopacity="1"
     objecttolerance="10"
     gridtolerance="10"
     guidetolerance="10"
     inkscape:pageopacity="0"
     inkscape:pageshadow="2"
     inkscape:window-width="1366"
     inkscape:window-height="721"
     id="namedview4"
     showgrid="false"
     inkscape:zoom="1.8294574"
     inkscape:cx="-9.8199153"
     inkscape:cy="64.5"
     inkscape:window-x="0"
     inkscape:window-y="0"
     inkscape:window-maximized="1"
     inkscape:current-layer="svg2" />
  <path
     style="fill:#000000"
     d="M 80.754147,115.95903 C 73.167133,113.90449 66.204743,107.84095 57.921057,109.67154 46.867052,115.22428 32.609186,117.29673 21.739183,110.19697 9.8210061,102.98251 4.8980506,85.168378 13.545211,73.661106 20.633556,63.13675 33.996164,58.742607 46.236867,59.409775 53.672961,58.743685 61.206853,52.760695 60.884527,44.783649 61.747806,36.637109 60.058982,26.918256 52.886884,21.982245 46.90888,19.396927 40.321308,26.330825 42.420347,32.265282 42.91589,38.629935 39.148755,46.257662 32.126402,46.778906 22.474166,48.314561 13.069935,37.639537 16.803252,28.305641 20.617528,16.345284 33.600527,9.9877018 45.41,9.1244034 62.861944,7.9182798 81.574455,19.084473 85.749831,36.664671 89.09277,50.446287 86.602625,64.676922 87.034294,78.664483 86.982152,85.482203 86.487711,92.776166 89.572206,99.056385 92.52148,103.0203 98.179467,108.17093 94.356234,113.37811 91.267155,117.6117 85.230653,117.12501 80.754147,115.95903 Z M 52.906821,98.424951 C 59.067655,91.35773 60.22199,81.130677 58.074506,72.266612 54.215799,65.962705 43.591169,66.990159 40.400961,73.425573 34.772767,80.507758 34.244513,91.377281 39.653723,98.732061 43.315555,101.96672 49.358641,101.68834 52.906821,98.424951 Z"
     id="path4138"
     inkscape:connector-curvature="0" />
</svg>
