<?xml version="1.0" encoding="UTF-8" standalone="no"?>
<!-- Created with Inkscape (http://www.inkscape.org/) -->

<svg
   xmlns:dc="http://purl.org/dc/elements/1.1/"
   xmlns:cc="http://creativecommons.org/ns#"
   xmlns:rdf="http://www.w3.org/1999/02/22-rdf-syntax-ns#"
   xmlns:svg="http://www.w3.org/2000/svg"
   xmlns="http://www.w3.org/2000/svg"
   xmlns:sodipodi="http://sodipodi.sourceforge.net/DTD/sodipodi-0.dtd"
   xmlns:inkscape="http://www.inkscape.org/namespaces/inkscape"
   id="svg2"
   version="1.1"
   inkscape:version="0.91 r13725"
   width="111"
   height="129"
   viewBox="0 0 111 129"
   sodipodi:docname="a30-vectInk-simp10.svg">
  <metadata
     id="metadata8">
    <rdf:RDF>
      <cc:Work
         rdf:about="">
        <dc:format>image/svg+xml</dc:format>
        <dc:type
           rdf:resource="http://purl.org/dc/dcmitype/StillImage" />
        <dc:title></dc:title>
      </cc:Work>
    </rdf:RDF>
  </metadata>
  <defs
     id="defs6" />
  <sodipodi:namedview
     pagecolor="#ffffff"
     bordercolor="#666666"
     borderopacity="1"
     objecttolerance="10"
     gridtolerance="10"
     guidetolerance="10"
     inkscape:pageopacity="0"
     inkscape:pageshadow="2"
     inkscape:window-width="1366"
     inkscape:window-height="721"
     id="namedview4"
     showgrid="false"
     inkscape:zoom="1.8294574"
     inkscape:cx="-9.8199153"
     inkscape:cy="64.5"
     inkscape:window-x="0"
     inkscape:window-y="0"
     inkscape:window-maximized="1"
     inkscape:current-layer="svg2" />
  <path
     style="fill:#000000"
     d="M 80.754147,115.95903 C 73.120504,114.05591 66.229989,107.60273 57.921057,109.67154 48.25925,114.00301 36.86301,117.11157 26.658025,112.6854 14.78273,107.95183 6.1606846,94.21167 9.9485878,81.467517 13.524465,68.338393 27.13201,59.728805 40.393014,59.845992 47.241229,59.387184 55.774209,58.413502 59.236889,51.544923 62.464116,44.3347 61.099646,35.995576 58.762945,28.749943 56.777795,23.239992 48.517428,17.91841 44.148418,23.999385 40.41061,29.655743 44.415389,37.534538 39.473195,42.692953 34.59821,48.805981 24.513057,47.979492 19.882754,41.978604 15.434603,37.149822 14.739155,29.416121 18.662159,24.061027 25.551686,12.663728 39.87562,7.8278679 52.658606,9.4318581 69.011565,10.924526 84.441281,23.703097 86.523198,40.416015 88.719009,54.091312 86.407032,67.941008 87.155372,81.694325 87.395232,86.901584 87.136189,92.280821 88.358252,97.343558 90.719508,102.15869 98.125648,106.17788 95.267475,112.3576 92.45853,117.38936 85.576144,116.9701 80.754147,115.95903 Z M 52.906821,98.424951 C 59.194762,91.409689 60.09308,81.126523 58.074506,72.266612 54.529178,66.033739 44.477134,66.968746 40.956081,72.750455 34.878858,79.823698 34.006025,91.152781 39.653723,98.732061 43.315471,101.96695 49.358598,101.68811 52.906821,98.424951 Z"
     id="path4138"
     inkscape:connector-curvature="0" />
</svg>
