<?xml version="1.0" standalone="no"?>
<!DOCTYPE svg PUBLIC "-//W3C//DTD SVG 20010904//EN"
 "http://www.w3.org/TR/2001/REC-SVG-20010904/DTD/svg10.dtd">
<svg version="1.0" xmlns="http://www.w3.org/2000/svg"
 width="120.000000pt" height="171.000000pt" viewBox="0 0 120.000000 171.000000"
 preserveAspectRatio="xMidYMid meet">
<metadata>
Created by potrace 1.12, written by Peter Selinger 2001-2015
</metadata>
<g transform="translate(0.000000,171.000000) scale(0.100000,-0.100000)"
fill="#000000" stroke="none">
<path d="M251 1619 c -75 -6 -108 -12 -122 -25 -29 -26 -23 -51 18 -78 81 -51
88 -66 88 -179 -1 -263 -16 -996 -21 -1027 -4 -25 -21 -50 -60 -87 -30 -29
-54 -59 -54 -66 0 -8 9 -22 21 -33 19 -17 37 -19 153 -19 72 1 165 5 206 9 65
7 82 5 128 -13 67 -27 141 -27 226 -1 51 16 79 33 125 76 105 97 161 210 186
373 18 118 6 189 -56 317 -78 165 -211 264 -354 264 -38 0 -88 -5 -109 -10
-50 -11 -91 8 -100 46 -4 15 -6 106 -5 203 4 268 1 271 -270 250z m530 -601
c 68 -38 82 -83 87 -278 5 -193 -9 -376 -35 -444 -25 -67 -60 -91 -131 -91 -80
1 -123 31 -165 115 l-32 65 1 215 c 2 190 4 222 23 274 50 144 151 201 252 144z"/>
</g>
</svg>
