<?xml version="1.0" encoding="UTF-8" standalone="no"?>
<svg
   xmlns:dc="http://purl.org/dc/elements/1.1/"
   xmlns:cc="http://creativecommons.org/ns#"
   xmlns:rdf="http://www.w3.org/1999/02/22-rdf-syntax-ns#"
   xmlns:svg="http://www.w3.org/2000/svg"
   xmlns="http://www.w3.org/2000/svg"
   viewBox="0 0 105 126"
   height="126"
   width="105"
   version="1.1"
   id="svg5897">
  <metadata
     id="metadata5903">
    <rdf:RDF>
      <cc:Work
         rdf:about="">
        <dc:format>image/svg+xml</dc:format>
        <dc:type
           rdf:resource="http://purl.org/dc/dcmitype/StillImage" />
        <dc:title></dc:title>
      </cc:Work>
    </rdf:RDF>
  </metadata>
  <defs
     id="defs5901" />
  <path
     id="path6454"
     d="M 48,115.33017 C 39.293582,113.24801 30.36672,110.07684 24.046062,103.43677 15.56498,94.936831 10.133278,83.293518 9.1156714,71.333856 8.4737638,54.105996 13.625662,36.095268 25.869676,23.562029 38.260568,10.259529 59.377399,4.8485608 76.031036,12.995771 c 7.136676,3.420948 13.146973,10.078822 13.737665,18.249742 0.893293,6.268459 -0.08805,13.739509 -5.969124,17.375773 -4.054447,3.423719 -9.89637,4.466948 -14.630265,1.795065 -6.027171,-2.479227 -8.269988,-10.067218 -6.258886,-15.92727 0.397467,-4.230934 4.419958,-10.581422 -0.67302,-13.256194 -6.057426,-2.801319 -14.268983,-0.598519 -17.359627,5.543593 -6.618014,10.899393 -5.718904,24.121791 -5.817356,36.359391 0.350701,11.345918 -0.08004,23.865579 7.076452,33.421649 4.662264,6.73062 13.778388,9.09119 21.365417,6.45725 8.493795,-2.04044 14.270146,-9.353247 17.938902,-16.642162 2.906185,-5.773874 9.991919,-2.072674 8.051348,3.483009 -2.888864,8.270562 -6.015016,15.897913 -15.070074,21.125853 -10.954174,6.0279 -20.291391,5.73731 -30.422468,4.3487 z"
     style="fill:#000000" />
</svg>
