<?xml version="1.0" encoding="UTF-8" standalone="no"?>
<svg
   xmlns:dc="http://purl.org/dc/elements/1.1/"
   xmlns:cc="http://creativecommons.org/ns#"
   xmlns:rdf="http://www.w3.org/1999/02/22-rdf-syntax-ns#"
   xmlns:svg="http://www.w3.org/2000/svg"
   xmlns="http://www.w3.org/2000/svg"
   viewBox="0 0 123 171"
   height="171"
   width="123"
   version="1.1"
   id="svg6832">
  <metadata
     id="metadata6838">
    <rdf:RDF>
      <cc:Work
         rdf:about="">
        <dc:format>image/svg+xml</dc:format>
        <dc:type
           rdf:resource="http://purl.org/dc/dcmitype/StillImage" />
        <dc:title></dc:title>
      </cc:Work>
    </rdf:RDF>
  </metadata>
  <defs
     id="defs6836" />
  <path
     id="path7382"
     d="M 9.2394271,115.02073 C 7.4403519,99.677909 13.822713,84.367529 24.323019,73.341826 31.657421,64.656278 42.531107,59.308843 54.365818,59.599379 c 7.062441,0.173379 19.303749,7.169295 21.709432,-3.086765 1.584233,-8.867301 1.047241,-17.990781 0.754053,-26.949926 0.709249,-8.878934 -8.993507,-9.498868 -13.718888,-13.934751 -2.047969,-7.0193433 7.811976,-6.580953 12.36299,-6.2802149 8.03183,0.1728824 16.345243,-0.8826155 24.136168,1.3849509 6.811537,3.585697 5.448267,12.428642 5.470427,18.874786 -0.58397,36.06823 -0.57939,72.160371 -0.73037,108.220351 -0.23652,7.09844 5.14445,12.02735 10.18703,15.58005 3.50282,9.08638 -9.34651,8.94261 -15.337032,8.58464 -8.659972,-0.51748 -17.237744,-1.55667 -25.765167,-2.68419 -9.577709,0.442 -18.826367,5.12245 -28.533422,2.90144 C 18.850744,155.77914 9.9498656,131.19628 9.2394271,115.02073 Z M 63.030039,148.75 c 9.585383,-4.74049 11.34471,-16.46288 12.407615,-26.00634 1.172804,-14.80368 2.986321,-30.723831 -3.711884,-44.537893 -4.196209,-7.410766 -14.126072,-13.101945 -22.221097,-8.202608 -8.525778,5.033878 -9.108848,16.075212 -9.802485,24.902428 -0.989987,14.285903 -2.442002,28.902593 0.553439,43.034853 2.190492,7.74587 10.073136,15.3336 18.621986,12.44616 1.438247,-0.39416 2.822078,-0.96712 4.152426,-1.6366 z"
     style="fill:#000000" />
</svg>
