<?xml version="1.0" standalone="no"?>
<!DOCTYPE svg PUBLIC "-//W3C//DTD SVG 20010904//EN"
 "http://www.w3.org/TR/2001/REC-SVG-20010904/DTD/svg10.dtd">
<svg version="1.0" xmlns="http://www.w3.org/2000/svg"
 width="84.000000pt" height="171.000000pt" viewBox="0 0 84.000000 171.000000"
 preserveAspectRatio="xMidYMid meet">
<metadata>
Created by potrace 1.12, written by Peter Selinger 2001-2015
</metadata>
<g transform="translate(0.000000,171.000000) scale(0.100000,-0.100000)"
fill="#000000" stroke="none">
<path d="M464 1594 c-62 -32 -129 -97 -156 -149 -12 -22 -38 -89 -59 -150 -36
-101 -44 -114 -94 -162 -30 -28 -55 -56 -55 -62 0 -6 20 -33 44 -60 34 -38 46
-61 52 -96 3 -25 2 -169 -3 -318 -10 -288 -11 -293 -64 -355 -35 -39 -38 -81
-8 -108 19 -17 40 -19 193 -22 193 -3 219 3 224 54 2 21 -6 41 -27 68 -16 20
-36 54 -43 74 -14 42 -15 225 -1 484 8 156 10 169 32 192 13 14 39 30 58 37
49 16 60 43 27 66 -91 64 -111 101 -99 181 13 90 35 103 116 72 64 -26 105
-21 142 18 50 52 62 133 28 188 -46 75 -208 101 -307 48z"/>
<path d="M823 963 c-12 -31 -9 -151 5 -164 10 -10 12 6 12 84 0 95 -4 114 -17
80z"/>
<path d="M822 587 c-26 -31 -37 -140 -25 -236 6 -49 17 -100 25 -113 12 -20
13 -12 16 75 1 53 1 140 0 194 -3 82 -5 94 -16 80z"/>
</g>
</svg>
