<?xml version="1.0" standalone="no"?>
<!DOCTYPE svg PUBLIC "-//W3C//DTD SVG 20010904//EN"
 "http://www.w3.org/TR/2001/REC-SVG-20010904/DTD/svg10.dtd">
<svg version="1.0" xmlns="http://www.w3.org/2000/svg"
 width="117.000000pt" height="171.000000pt" viewBox="0 0 117.000000 171.000000"
 preserveAspectRatio="xMidYMid meet">
<metadata>
Created by potrace 1.12, written by Peter Selinger 2001-2015
</metadata>
<g transform="translate(0.000000,171.000000) scale(0.100000,-0.100000)"
fill="#000000" stroke="none">
<path d="M418 1601 c-73 -24 -116 -51 -165 -104 -59 -64 -85 -143 -82 -242 6
-176 4 -189 -35 -259 -63 -112 -46 -204 53 -301 70 -68 69 -88 -8 -164 -89
-88 -102 -161 -46 -257 55 -93 200 -161 365 -171 199 -12 380 80 456 230 34
66 57 178 48 236 -15 101 -74 218 -132 259 -15 11 -54 34 -88 51 -33 17 -69
40 -80 52 -19 21 -19 21 13 47 17 15 50 41 72 57 60 44 98 106 117 191 13 59
22 79 46 99 16 14 36 25 44 25 28 0 63 32 75 67 14 42 6 85 -21 123 -35 49
-87 54 -207 21 -36 -10 -50 -9 -100 10 -153 56 -223 62 -325 30z m173 -114
c19 -12 45 -43 58 -69 20 -42 23 -62 22 -154 -1 -116 -18 -172 -64 -206 -66
-47 -155 -8 -192 84 -19 48 -22 195 -5 257 26 98 107 138 181 88z m-248 -504
c42 -21 32 -47 -20 -51 -50 -4 -83 11 -83 38 0 40 41 45 103 13z m384 -375
c91 -23 156 -116 138 -199 -19 -86 -67 -143 -160 -186 -50 -23 -73 -27 -140
-27 -94 0 -144 15 -191 57 -145 127 -57 323 113 252 52 -22 63 -14 63 43 0 80
42 95 177 60z"/>
</g>
</svg>
