<?xml version="1.0" standalone="no"?>
<!DOCTYPE svg PUBLIC "-//W3C//DTD SVG 20010904//EN"
 "http://www.w3.org/TR/2001/REC-SVG-20010904/DTD/svg10.dtd">
<svg version="1.0" xmlns="http://www.w3.org/2000/svg"
 width="120.000000pt" height="174.000000pt" viewBox="0 0 120.000000 174.000000"
 preserveAspectRatio="xMidYMid meet">
<metadata>
Created by potrace 1.12, written by Peter Selinger 2001-2015
</metadata>
<g transform="translate(0.000000,174.000000) scale(0.100000,-0.100000)"
fill="#000000" stroke="none">
<path d="M116 1629 c-14 -11 -26 -27 -26 -35 0 -8 24 -38 54 -67 70 -67 71
-74 62 -431 -12 -535 -25 -765 -48 -827 -40 -115 -21 -129 177 -129 143 0 177
7 198 41 8 13 3 26 -26 60 -21 23 -42 59 -47 78 -13 48 -13 364 1 471 24 198
104 299 214 269 72 -20 94 -95 95 -319 0 -114 -15 -364 -26 -417 -2 -13 -24
-45 -49 -73 -25 -28 -45 -55 -45 -60 0 -24 54 -42 147 -51 200 -17 275 -9 289
33 5 18 1 28 -46 113 -21 39 -22 46 -17 310 5 250 4 274 -15 335 -33 107 -103
184 -196 214 -59 20 -96 22 -197 12 -73 -7 -83 -6 -105 12 l-25 20 0 196 0
195 -26 27 c-33 33 -84 43 -215 44 -88 0 -105 -3 -128 -21z"/>
</g>
</svg>
