<?xml version="1.0" standalone="no"?>
<!DOCTYPE svg PUBLIC "-//W3C//DTD SVG 20010904//EN"
 "http://www.w3.org/TR/2001/REC-SVG-20010904/DTD/svg10.dtd">
<svg version="1.0" xmlns="http://www.w3.org/2000/svg"
 width="72.000000pt" height="183.000000pt" viewBox="0 0 72.000000 183.000000"
 preserveAspectRatio="xMidYMid meet">
<metadata>
Created by potrace 1.12, written by Peter Selinger 2001-2015
</metadata>
<g transform="translate(0.000000,183.000000) scale(0.100000,-0.100000)"
fill="#000000" stroke="none">
<path d="M243 1720 c-88 -53 -83 -196 8 -258 28 -20 43 -23 87 -20 83 7 132
65 132 156 0 55 -29 108 -70 129 -38 20 -120 16 -157 -7z"/>
<path d="M160 1207 c-46 -16 -49 -41 -13 -109 35 -67 38 -117 25 -450 l-10
-247 -31 -56 c-59 -104 -35 -136 110 -143 122 -6 194 4 226 33 l27 23 -28 70
-28 70 3 376 4 375 -26 26 c-14 15 -43 30 -65 35 -54 13 -152 11 -194 -3z"/>
</g>
</svg>
