<?xml version="1.0" standalone="no"?>
<!DOCTYPE svg PUBLIC "-//W3C//DTD SVG 20010904//EN"
 "http://www.w3.org/TR/2001/REC-SVG-20010904/DTD/svg10.dtd">
<svg version="1.0" xmlns="http://www.w3.org/2000/svg"
 width="75.000000pt" height="219.000000pt" viewBox="0 0 75.000000 219.000000"
 preserveAspectRatio="xMidYMid meet">
<metadata>
Created by potrace 1.12, written by Peter Selinger 2001-2015
</metadata>
<g transform="translate(0.000000,219.000000) scale(0.100000,-0.100000)"
fill="#000000" stroke="none">
<path d="M472 2183 c37 -2 100 -2 140 0 40 1 10 3 -67 3 -77 0 -110 -1 -73 -3z"/>
<path d="M473 2163 c37 -2 97 -2 135 0 37 2 6 3 -68 3 -74 0 -105 -1 -67 -3z"/>
<path d="M473 2143 c37 -2 97 -2 135 0 37 2 6 3 -68 3 -74 0 -105 -1 -67 -3z"/>
<path d="M473 2123 c37 -2 97 -2 135 0 37 2 6 3 -68 3 -74 0 -105 -1 -67 -3z"/>
<path d="M473 2103 c37 -2 97 -2 135 0 37 2 6 3 -68 3 -74 0 -105 -1 -67 -3z"/>
<path d="M473 2083 c37 -2 97 -2 135 0 37 2 6 3 -68 3 -74 0 -105 -1 -67 -3z"/>
<path d="M473 2063 c37 -2 97 -2 135 0 37 2 6 3 -68 3 -74 0 -105 -1 -67 -3z"/>
<path d="M473 2043 c37 -2 97 -2 135 0 37 2 6 3 -68 3 -74 0 -105 -1 -67 -3z"/>
<path d="M473 2023 c37 -2 97 -2 135 0 37 2 6 3 -68 3 -74 0 -105 -1 -67 -3z"/>
<path d="M462 2003 c37 -2 100 -2 140 0 40 1 10 3 -67 3 -77 0 -110 -1 -73 -3z"/>
<path d="M462 1983 c37 -2 100 -2 140 0 40 1 10 3 -67 3 -77 0 -110 -1 -73 -3z"/>
<path d="M462 1963 c37 -2 100 -2 140 0 40 1 10 3 -67 3 -77 0 -110 -1 -73 -3z"/>
<path d="M462 1943 c37 -2 100 -2 140 0 40 1 10 3 -67 3 -77 0 -110 -1 -73 -3z"/>
<path d="M462 1923 c37 -2 100 -2 140 0 40 1 10 3 -67 3 -77 0 -110 -1 -73 -3z"/>
<path d="M462 1903 c37 -2 100 -2 140 0 40 1 10 3 -67 3 -77 0 -110 -1 -73 -3z"/>
<path d="M462 1883 c37 -2 100 -2 140 0 40 1 10 3 -67 3 -77 0 -110 -1 -73 -3z"/>
<path d="M462 1863 c37 -2 100 -2 140 0 40 1 10 3 -67 3 -77 0 -110 -1 -73 -3z"/>
<path d="M462 1843 c37 -2 100 -2 140 0 40 1 10 3 -67 3 -77 0 -110 -1 -73 -3z"/>
<path d="M462 1823 c37 -2 100 -2 140 0 40 1 10 3 -67 3 -77 0 -110 -1 -73 -3z"/>
<path d="M462 1803 c37 -2 100 -2 140 0 40 1 10 3 -67 3 -77 0 -110 -1 -73 -3z"/>
<path d="M462 1783 c37 -2 100 -2 140 0 40 1 10 3 -67 3 -77 0 -110 -1 -73 -3z"/>
<path d="M462 1763 c37 -2 100 -2 140 0 40 1 10 3 -67 3 -77 0 -110 -1 -73 -3z"/>
<path d="M462 1743 c37 -2 100 -2 140 0 40 1 10 3 -67 3 -77 0 -110 -1 -73 -3z"/>
<path d="M462 1723 c37 -2 100 -2 140 0 40 1 10 3 -67 3 -77 0 -110 -1 -73 -3z"/>
<path d="M462 1703 c37 -2 100 -2 140 0 40 1 10 3 -67 3 -77 0 -110 -1 -73 -3z"/>
<path d="M458 1683 c39 -2 105 -2 145 0 39 1 7 3 -73 3 -80 0 -112 -2 -72 -3z"/>
<path d="M458 1663 c39 -2 105 -2 145 0 39 1 7 3 -73 3 -80 0 -112 -2 -72 -3z"/>
<path d="M458 1643 c39 -2 105 -2 145 0 39 1 7 3 -73 3 -80 0 -112 -2 -72 -3z"/>
<path d="M458 1623 c39 -2 105 -2 145 0 39 1 7 3 -73 3 -80 0 -112 -2 -72 -3z"/>
<path d="M458 1603 c39 -2 105 -2 145 0 39 1 7 3 -73 3 -80 0 -112 -2 -72 -3z"/>
<path d="M458 1583 c39 -2 105 -2 145 0 39 1 7 3 -73 3 -80 0 -112 -2 -72 -3z"/>
<path d="M458 1563 c39 -2 105 -2 145 0 39 1 7 3 -73 3 -80 0 -112 -2 -72 -3z"/>
<path d="M458 1543 c39 -2 105 -2 145 0 39 1 7 3 -73 3 -80 0 -112 -2 -72 -3z"/>
<path d="M458 1523 c39 -2 105 -2 145 0 39 1 7 3 -73 3 -80 0 -112 -2 -72 -3z"/>
<path d="M458 1503 c39 -2 105 -2 145 0 39 1 7 3 -73 3 -80 0 -112 -2 -72 -3z"/>
<path d="M458 1483 c39 -2 105 -2 145 0 39 1 7 3 -73 3 -80 0 -112 -2 -72 -3z"/>
<path d="M458 1463 c39 -2 105 -2 145 0 39 1 7 3 -73 3 -80 0 -112 -2 -72 -3z"/>
<path d="M458 1443 c39 -2 105 -2 145 0 39 1 7 3 -73 3 -80 0 -112 -2 -72 -3z"/>
<path d="M458 1423 c39 -2 105 -2 145 0 39 1 7 3 -73 3 -80 0 -112 -2 -72 -3z"/>
<path d="M458 1403 c39 -2 105 -2 145 0 39 1 7 3 -73 3 -80 0 -112 -2 -72 -3z"/>
<path d="M458 1383 c39 -2 105 -2 145 0 39 1 7 3 -73 3 -80 0 -112 -2 -72 -3z"/>
<path d="M458 1363 c39 -2 105 -2 145 0 39 1 7 3 -73 3 -80 0 -112 -2 -72 -3z"/>
<path d="M458 1343 c39 -2 105 -2 145 0 39 1 7 3 -73 3 -80 0 -112 -2 -72 -3z"/>
<path d="M458 1323 c39 -2 105 -2 145 0 39 1 7 3 -73 3 -80 0 -112 -2 -72 -3z"/>
<path d="M458 1303 c39 -2 105 -2 145 0 39 1 7 3 -73 3 -80 0 -112 -2 -72 -3z"/>
<path d="M458 1283 c39 -2 105 -2 145 0 39 1 7 3 -73 3 -80 0 -112 -2 -72 -3z"/>
<path d="M458 1263 c39 -2 105 -2 145 0 39 1 7 3 -73 3 -80 0 -112 -2 -72 -3z"/>
<path d="M458 1243 c39 -2 105 -2 145 0 39 1 7 3 -73 3 -80 0 -112 -2 -72 -3z"/>
<path d="M458 1223 c39 -2 105 -2 145 0 39 1 7 3 -73 3 -80 0 -112 -2 -72 -3z"/>
<path d="M458 1203 c39 -2 105 -2 145 0 39 1 7 3 -73 3 -80 0 -112 -2 -72 -3z"/>
<path d="M458 1183 c39 -2 105 -2 145 0 39 1 7 3 -73 3 -80 0 -112 -2 -72 -3z"/>
<path d="M458 1163 c39 -2 105 -2 145 0 39 1 7 3 -73 3 -80 0 -112 -2 -72 -3z"/>
<path d="M458 1143 c39 -2 105 -2 145 0 39 1 7 3 -73 3 -80 0 -112 -2 -72 -3z"/>
<path d="M458 1123 c39 -2 105 -2 145 0 39 1 7 3 -73 3 -80 0 -112 -2 -72 -3z"/>
<path d="M458 1103 c39 -2 105 -2 145 0 39 1 7 3 -73 3 -80 0 -112 -2 -72 -3z"/>
<path d="M458 1083 c39 -2 105 -2 145 0 39 1 7 3 -73 3 -80 0 -112 -2 -72 -3z"/>
<path d="M458 1063 c39 -2 105 -2 145 0 39 1 7 3 -73 3 -80 0 -112 -2 -72 -3z"/>
<path d="M453 1043 c43 -2 110 -2 150 0 40 1 5 3 -78 3 -82 0 -115 -2 -72 -3z"/>
<path d="M453 1023 c43 -2 110 -2 150 0 40 1 5 3 -78 3 -82 0 -115 -2 -72 -3z"/>
<path d="M453 1003 c43 -2 110 -2 150 0 40 1 5 3 -78 3 -82 0 -115 -2 -72 -3z"/>
<path d="M448 983 c39 -2 105 -2 145 0 39 1 7 3 -73 3 -80 0 -112 -2 -72 -3z"/>
<path d="M448 963 c39 -2 105 -2 145 0 39 1 7 3 -73 3 -80 0 -112 -2 -72 -3z"/>
<path d="M188 943 c12 -2 30 -2 40 0 9 3 -1 5 -23 4 -22 0 -30 -2 -17 -4z"/>
<path d="M443 943 c43 -2 110 -2 150 0 40 1 5 3 -78 3 -82 0 -115 -2 -72 -3z"/>
<path d="M178 923 c18 -2 45 -2 60 0 15 2 0 4 -33 4 -33 0 -45 -2 -27 -4z"/>
<path d="M443 923 c43 -2 110 -2 150 0 40 1 5 3 -78 3 -82 0 -115 -2 -72 -3z"/>
<path d="M168 903 c23 -2 59 -2 80 0 20 2 1 4 -43 4 -44 0 -61 -2 -37 -4z"/>
<path d="M433 903 c42 -2 112 -2 155 0 42 1 7 3 -78 3 -85 0 -120 -2 -77 -3z"/>
<path d="M163 883 c26 -2 67 -2 90 0 23 2 2 3 -48 3 -49 0 -68 -1 -42 -3z"/>
<path d="M428 883 c46 -2 118 -2 160 0 42 1 5 3 -83 3 -88 0 -123 -2 -77 -3z"/>
<path d="M168 863 c29 -2 74 -2 100 0 26 2 2 3 -53 3 -55 0 -76 -1 -47 -3z"/>
<path d="M428 863 c46 -2 118 -2 160 0 42 1 5 3 -83 3 -88 0 -123 -2 -77 -3z"/>
<path d="M243 843 c75 -2 199 -2 275 0 75 1 13 3 -138 3 -151 0 -213 -2 -137
-3z"/>
<path d="M238 823 c79 -2 205 -2 280 0 75 1 11 3 -143 3 -154 0 -216 -2 -137
-3z"/>
<path d="M238 803 c79 -2 205 -2 280 0 75 1 11 3 -143 3 -154 0 -216 -2 -137
-3z"/>
<path d="M233 783 c75 -2 199 -2 275 0 75 1 13 3 -138 3 -151 0 -213 -2 -137
-3z"/>
<path d="M228 763 c79 -2 205 -2 280 0 75 1 11 3 -143 3 -154 0 -216 -2 -137
-3z"/>
<path d="M223 743 c75 -2 199 -2 275 0 75 1 13 3 -138 3 -151 0 -213 -2 -137
-3z"/>
<path d="M223 723 c75 -2 199 -2 275 0 75 1 13 3 -138 3 -151 0 -213 -2 -137
-3z"/>
<path d="M223 703 c75 -2 199 -2 275 0 75 1 13 3 -138 3 -151 0 -213 -2 -137
-3z"/>
<path d="M223 683 c76 -2 198 -2 270 0 73 1 11 3 -138 3 -148 0 -208 -2 -132
-3z"/>
<path d="M213 663 c75 -2 199 -2 275 0 75 1 13 3 -138 3 -151 0 -213 -2 -137
-3z"/>
<path d="M213 643 c76 -2 198 -2 270 0 73 1 11 3 -138 3 -148 0 -208 -2 -132
-3z"/>
<path d="M207 623 c73 -2 193 -2 265 0 73 1 14 3 -132 3 -146 0 -205 -2 -133
-3z"/>
<path d="M207 603 c73 -2 193 -2 265 0 73 1 14 3 -132 3 -146 0 -205 -2 -133
-3z"/>
<path d="M213 583 c70 -2 184 -2 255 0 70 1 12 3 -128 3 -140 0 -198 -2 -127
-3z"/>
<path d="M213 563 c71 -2 183 -2 250 0 67 1 10 3 -128 3 -137 0 -192 -2 -122
-3z"/>
<path d="M213 543 c71 -2 183 -2 250 0 67 1 10 3 -128 3 -137 0 -192 -2 -122
-3z"/>
<path d="M208 523 c67 -2 177 -2 245 0 67 1 12 3 -123 3 -135 0 -190 -2 -122
-3z"/>
<path d="M208 503 c68 -2 176 -2 240 0 64 1 9 3 -123 3 -132 0 -185 -2 -117
-3z"/>
<path d="M213 483 c65 -2 168 -2 230 0 62 1 9 3 -118 3 -126 0 -177 -2 -112
-3z"/>
<path d="M208 463 c61 -2 163 -2 225 0 61 1 11 3 -113 3 -124 0 -174 -2 -112
-3z"/>
<path d="M213 443 c59 -2 155 -2 215 0 59 1 10 3 -108 3 -118 0 -167 -2 -107
-3z"/>
<path d="M213 423 c59 -2 154 -2 210 0 56 1 8 3 -108 3 -116 0 -161 -2 -102
-3z"/>
<path d="M218 403 c57 -2 147 -2 200 0 53 1 7 3 -103 3 -110 0 -154 -2 -97 -3z"/>
<path d="M223 383 c54 -2 139 -2 190 0 51 1 7 3 -98 3 -104 0 -146 -2 -92 -3z"/>
<path d="M222 363 c49 -2 127 -2 175 0 49 1 9 3 -87 3 -96 0 -136 -2 -88 -3z"/>
<path d="M228 343 c45 -2 119 -2 165 0 45 1 8 3 -83 3 -91 0 -128 -2 -82 -3z"/>
<path d="M238 323 c39 -2 105 -2 145 0 39 1 7 3 -73 3 -80 0 -112 -2 -72 -3z"/>
<path d="M248 303 c34 -2 90 -2 125 0 34 2 6 3 -63 3 -69 0 -97 -1 -62 -3z"/>
<path d="M258 283 c29 -2 74 -2 100 0 26 2 2 3 -53 3 -55 0 -76 -1 -47 -3z"/>
<path d="M268 263 c17 -2 47 -2 65 0 17 2 3 4 -33 4 -36 0 -50 -2 -32 -4z"/>
</g>
</svg>
