<?xml version="1.0" standalone="no"?>
<!DOCTYPE svg PUBLIC "-//W3C//DTD SVG 20010904//EN"
 "http://www.w3.org/TR/2001/REC-SVG-20010904/DTD/svg10.dtd">
<svg version="1.0" xmlns="http://www.w3.org/2000/svg"
 width="126.000000pt" height="171.000000pt" viewBox="0 0 126.000000 171.000000"
 preserveAspectRatio="xMidYMid meet">
<metadata>
Created by potrace 1.12, written by Peter Selinger 2001-2015
</metadata>
<g transform="translate(0.000000,171.000000) scale(0.100000,-0.100000)"
fill="#000000" stroke="none">
<path d="M140 1607 c-52 -18 -51 -47 3 -99 24 -24 49 -53 55 -65 9 -16 12
-175 12 -585 0 -631 6 -582 -76 -639 -40 -27 -45 -34 -39 -57 4 -15 12 -30 18
-35 7 -4 131 -7 277 -6 146 1 361 -3 478 -9 275 -13 307 -5 300 75 -3 35 -7
40 -60 65 -72 34 -132 95 -152 154 -8 25 -27 59 -41 75 -14 17 -25 36 -25 44
0 7 -7 19 -17 26 -9 8 -22 28 -29 44 -7 17 -33 57 -58 90 -64 82 -63 113 9
190 20 22 43 52 50 66 16 30 83 79 109 79 28 0 86 64 86 94 0 48 -26 82 -68
93 -42 11 -120 7 -137 -6 -5 -5 -29 -11 -53 -14 -48 -6 -112 -49 -112 -75 0
-10 9 -35 20 -57 11 -22 20 -48 20 -60 0 -11 -24 -56 -54 -100 -115 -171 -145
-178 -164 -35 -11 88 1 401 17 443 13 34 14 94 2 101 -4 3 -11 39 -13 81 -6
86 -20 109 -77 125 -49 14 -238 12 -281 -3z m428 -1162 c56 -64 87 -125 78
-159 -8 -31 -43 -48 -85 -40 -39 8 -55 28 -70 91 -13 52 -12 56 14 141 7 21
22 13 63 -33z"/>
</g>
</svg>
