<?xml version="1.0" standalone="no"?>
<!DOCTYPE svg PUBLIC "-//W3C//DTD SVG 20010904//EN"
 "http://www.w3.org/TR/2001/REC-SVG-20010904/DTD/svg10.dtd">
<svg version="1.0" xmlns="http://www.w3.org/2000/svg"
 width="120.000000pt" height="123.000000pt" viewBox="0 0 120.000000 123.000000"
 preserveAspectRatio="xMidYMid meet">
<metadata>
Created by potrace 1.12, written by Peter Selinger 2001-2015
</metadata>
<g transform="translate(0.000000,123.000000) scale(0.100000,-0.100000)"
fill="#000000" stroke="none">
<path d="M580 1123 c-65 -20 -135 -21 -288 -4 -179 21 -207 -2 -152 -121 l33
-70 -5 -312 -4 -311 -27 -59 c-33 -70 -34 -97 -6 -122 19 -17 38 -19 173 -19
129 0 156 3 179 18 35 23 34 49 -5 111 l-33 51 -4 158 c-3 170 12 358 35 437
45 153 199 189 257 62 20 -44 21 -62 21 -312 0 -311 -6 -350 -66 -412 -44 -46
-46 -71 -8 -99 22 -17 47 -19 203 -20 156 0 181 2 198 17 26 24 24 59 -8 113
l-28 46 -5 280 c-7 310 -11 335 -83 442 -75 113 -241 168 -377 126z"/>
</g>
</svg>
