<?xml version="1.0" standalone="no"?>
<!DOCTYPE svg PUBLIC "-//W3C//DTD SVG 20010904//EN"
 "http://www.w3.org/TR/2001/REC-SVG-20010904/DTD/svg10.dtd">
<svg version="1.0" xmlns="http://www.w3.org/2000/svg"
 width="120.000000pt" height="171.000000pt" viewBox="0 0 120.000000 171.000000"
 preserveAspectRatio="xMidYMid meet">
<metadata>
Created by potrace 1.12, written by Peter Selinger 2001-2015
</metadata>
<g transform="translate(0.000000,171.000000) scale(0.100000,-0.100000)"
fill="#000000" stroke="none">
<path d="M178 1594 c-34 -18 -37 -57 -8 -107 11 -18 24 -56 29 -83 12 -62 -5
-1046 -19 -1092 -5 -19 -24 -53 -43 -75 -41 -51 -47 -66 -36 -94 12 -34 67
-43 254 -43 226 0 253 17 181 112 -45 59 -56 103 -56 226 0 110 13 155 49 167
11 3 57 -1 102 -10 157 -29 227 -14 320 72 102 95 169 261 169 416 -1 145 -66
304 -164 403 -71 71 -118 97 -205 115 -57 12 -70 11 -149 -9 l-87 -23 -85 20
c-100 25 -213 27 -252 5z m560 -114 c41 -25 77 -100 91 -190 20 -122 9 -412
-20 -522 -21 -82 -107 -126 -185 -93 -110 46 -144 137 -144 388 0 142 22 312
47 365 31 65 144 93 211 52z"/>
</g>
</svg>
