<?xml version="1.0" standalone="no"?>
<!DOCTYPE svg PUBLIC "-//W3C//DTD SVG 20010904//EN"
 "http://www.w3.org/TR/2001/REC-SVG-20010904/DTD/svg10.dtd">
<svg version="1.0" xmlns="http://www.w3.org/2000/svg"
 width="156.000000pt" height="114.000000pt" viewBox="0 0 156.000000 114.000000"
 preserveAspectRatio="xMidYMid meet">
<metadata>
Created by potrace 1.12, written by Peter Selinger 2001-2015
</metadata>
<g transform="translate(0.000000,114.000000) scale(0.100000,-0.100000)"
fill="#000000" stroke="none">
<path d="M291 1050 c-36 -9 -117 -82 -127 -115 -3 -11 -22 -55 -41 -97 -39
-84 -37 -100 14 -113 20 -5 32 0 52 19 15 15 32 26 38 26 17 0 21 -48 7 -76
-8 -14 -14 -52 -14 -83 -1 -31 -7 -67 -15 -81 -23 -40 -20 -196 5 -245 11 -22
20 -49 20 -61 0 -41 17 -69 66 -108 l49 -38 90 4 90 3 86 73 c48 39 91 72 97
72 6 0 25 -20 42 -44 75 -104 163 -134 318 -108 65 11 87 24 178 106 45 41
144 182 144 205 0 3 9 23 20 43 11 20 24 63 29 95 5 32 14 71 20 86 12 30 15
264 5 291 -3 9 -29 34 -56 56 -42 33 -58 40 -95 40 -36 0 -50 -6 -75 -30 -26
-27 -30 -36 -24 -68 8 -52 35 -83 99 -115 l57 -27 0 -53 c0 -50 -8 -79 -63
-214 -90 -222 -200 -327 -323 -308 -34 5 -47 12 -58 33 -24 48 -28 98 -11 139
9 21 23 88 31 148 8 61 25 148 38 195 48 170 56 271 23 299 -22 18 -94 24
-126 12 -37 -16 -90 -98 -101 -158 -4 -27 -15 -66 -24 -88 -8 -22 -15 -49 -16
-60 0 -12 -8 -37 -19 -58 -10 -20 -22 -58 -26 -84 -4 -26 -15 -64 -26 -84 -10
-20 -26 -67 -35 -105 -14 -54 -27 -78 -58 -112 -67 -70 -125 -92 -146 -53 -24
46 -6 188 50 396 48 175 50 216 16 310 -44 121 -102 159 -205 135z m-21 -200
c0 -11 -7 -20 -15 -20 -8 0 -15 9 -15 20 0 11 7 20 15 20 8 0 15 -9 15 -20z"/>
</g>
</svg>
