<?xml version="1.0" standalone="no"?>
<!DOCTYPE svg PUBLIC "-//W3C//DTD SVG 20010904//EN"
 "http://www.w3.org/TR/2001/REC-SVG-20010904/DTD/svg10.dtd">
<svg version="1.0" xmlns="http://www.w3.org/2000/svg"
 width="120.000000pt" height="174.000000pt" viewBox="0 0 120.000000 174.000000"
 preserveAspectRatio="xMidYMid meet">
<metadata>
Created by potrace 1.12, written by Peter Selinger 2001-2015
</metadata>
<g transform="translate(0.000000,174.000000) scale(0.100000,-0.100000)"
fill="#000000" stroke="none">
<path d="M895 1633 c-88 -19 -99 -45 -55 -128 28 -53 31 -66 26 -115 -7 -72
-39 -164 -79 -230 -64 -106 -102 -86 -176 94 -28 69 -54 146 -58 171 -6 44 -4
47 36 85 46 44 51 68 20 96 -19 17 -41 19 -223 22 -124 2 -212 -1 -228 -7 -43
-16 -38 -57 13 -106 22 -22 51 -60 64 -85 22 -44 95 -224 95 -235 0 -3 34 -94
75 -203 112 -293 112 -294 125 -336 25 -78 -11 -211 -75 -280 -33 -36 -57 -33
-116 14 -63 49 -105 58 -156 34 -73 -36 -103 -135 -64 -212 34 -67 95 -102
178 -102 129 0 242 116 304 310 9 30 31 87 48 125 29 66 249 625 293 745 36
100 82 182 117 209 19 14 42 34 52 44 25 23 25 73 0 87 -19 10 -175 12 -216 3z"/>
</g>
</svg>
